<?xml version="1.0" encoding="UTF-8"?>
<!-- Generator: visioncortex VTracer 0.6.3 -->
<svg version="1.1" xmlns="http://www.w3.org/2000/svg" width="1280" height="1280">
<path d="M0 0 C0.85 -0 1.69 -0 2.57 -0 C5.41 -0.01 8.26 -0 11.11 -0 C13.17 -0 15.23 -0 17.28 -0.01 C22.95 -0.01 28.61 -0.01 34.27 -0 C40.38 -0 46.48 -0.01 52.58 -0.01 C63.85 -0.01 75.12 -0.01 86.39 -0.01 C96.79 -0.01 107.2 -0.01 117.6 -0.01 C118.29 -0.01 118.98 -0.01 119.69 -0.01 C122.49 -0.01 125.29 -0.01 128.09 -0.01 C154.36 -0.01 180.63 -0.01 206.9 -0 C230.26 0 253.62 0 276.97 -0 C303.2 -0.01 329.43 -0.01 355.66 -0.01 C358.45 -0.01 361.25 -0.01 364.04 -0.01 C364.73 -0.01 365.41 -0.01 366.12 -0.01 C376.53 -0.01 386.93 -0.01 397.34 -0.01 C409.16 -0.01 420.98 -0.01 432.8 -0.01 C438.84 -0 444.88 -0 450.92 -0.01 C456.43 -0.01 461.95 -0.01 467.47 -0 C469.47 -0 471.48 -0 473.48 -0 C476.19 -0.01 478.9 -0 481.6 0 C482.4 -0 483.19 -0 484.01 -0.01 C489.37 0.01 489.37 0.01 490.49 1.13 C492.42 1.15 494.36 1.12 496.3 1.06 C508.9 0.99 515.74 2.4 524.74 11.28 C526.32 12.87 527.91 14.47 529.49 16.06 C530.28 16.86 531.08 17.66 531.89 18.48 C533.38 19.98 534.86 21.47 536.35 22.97 C538.72 25.36 541.1 27.74 543.49 30.13 C544.45 31.08 545.4 32.04 546.36 33 C546.87 33.5 547.37 34.01 547.89 34.53 C585.19 71.83 585.19 71.83 622.49 109.13 C623.03 109.66 623.57 110.2 624.13 110.76 C625.72 112.37 627.16 114.08 628.61 115.81 C631.96 119.68 635.63 122.97 639.49 126.31 C641.78 128.39 643.58 130.7 645.49 133.13 C646.96 134.34 648.43 135.56 649.92 136.75 C651.59 138.22 652.95 139.78 654.36 141.5 C656.54 144.13 658.82 146.36 661.42 148.56 C664.1 150.84 666.47 153.14 668.74 155.81 C674.73 162.87 681.38 169.63 688.49 175.56 C691.25 177.92 693.25 180.29 695.49 183.13 C697.14 184.48 698.8 185.81 700.49 187.13 C702.17 188.77 703.84 190.44 705.49 192.13 C705.16 193.12 704.83 194.11 704.49 195.13 C701.19 194.54 699.5 193.53 697.1 191.21 C696.47 190.62 695.85 190.03 695.21 189.42 C694.56 188.78 693.91 188.15 693.24 187.5 C691.88 186.21 690.52 184.92 689.16 183.63 C688.52 183.01 687.88 182.4 687.21 181.76 C683.56 178.3 679.75 175.04 675.91 171.79 C663.1 160.92 663.1 160.92 658.05 155.69 C655.69 153.32 653.16 151.17 650.63 148.99 C648.35 147 646.1 144.97 643.86 142.94 C639.12 138.65 634.28 134.5 629.4 130.38 C625.93 127.43 622.68 124.36 619.49 121.13 C613.92 115.95 608.25 110.89 602.51 105.9 C599.28 103.07 596.1 100.18 592.91 97.3 C590.85 95.45 588.77 93.63 586.67 91.81 C583.09 88.69 579.6 85.48 576.11 82.25 C568.51 75.22 560.87 68.27 552.92 61.63 C548.22 57.7 543.87 53.57 539.59 49.17 C536.85 46.51 533.86 44.3 530.81 42.01 C527.29 39.15 524.23 35.87 521.14 32.56 C514.61 26.57 509.51 24.38 500.65 24.5 C499.2 24.49 499.2 24.49 497.73 24.48 C494.49 24.46 491.25 24.48 488.01 24.5 C485.67 24.49 483.32 24.49 480.98 24.48 C475.21 24.46 469.44 24.47 463.67 24.48 C456.76 24.5 449.85 24.49 442.94 24.48 C429.39 24.45 415.85 24.46 402.3 24.48 C390.44 24.49 378.58 24.5 366.72 24.5 C365.54 24.5 365.54 24.5 364.34 24.49 C361.15 24.49 357.95 24.49 354.76 24.49 C324.78 24.48 294.8 24.5 264.83 24.53 C238.22 24.56 211.62 24.56 185.01 24.55 C178.2 24.55 171.4 24.54 164.59 24.54 C163.75 24.54 162.91 24.54 162.05 24.54 C139.8 24.53 117.55 24.53 95.3 24.55 C92.9 24.55 90.51 24.55 88.11 24.55 C86.52 24.55 84.93 24.55 83.34 24.55 C71.5 24.56 59.66 24.56 47.81 24.55 C34.33 24.54 20.85 24.55 7.37 24.57 C0.5 24.59 -6.38 24.59 -13.25 24.58 C-19.55 24.57 -25.86 24.58 -32.16 24.6 C-34.43 24.61 -36.7 24.61 -38.97 24.6 C-67.66 24.49 -96.82 30.46 -117.9 51.36 C-136.78 71.34 -141.01 100.39 -143.87 126.61 C-144.16 129.25 -144.45 131.86 -145.02 134.46 C-145.57 137.45 -145.71 140.31 -145.79 143.35 C-145.83 144.55 -145.87 145.75 -145.91 146.98 C-145.94 148.23 -145.98 149.47 -146.01 150.75 C-146.23 158.46 -146.55 166.09 -147.31 173.77 C-147.57 176.77 -147.54 179.74 -147.45 182.75 C-147.39 188.21 -148.09 192.86 -149.51 198.13 C-152.28 195.01 -152.74 193.24 -152.51 189.13 C-152.84 188.8 -153.17 188.47 -153.51 188.13 C-153.43 185.9 -153.28 183.68 -153.1 181.45 C-152.62 174.76 -152.38 168.08 -152.27 161.36 C-152.25 160.43 -152.23 159.49 -152.22 158.53 C-152.15 154.67 -152.09 150.81 -152.04 146.95 C-151.77 127.91 -151.77 127.91 -149.93 118.71 C-149.49 115.97 -149.46 113.44 -149.53 110.66 C-149.65 104.43 -148.5 98.64 -147.2 92.56 C-146.99 91.5 -146.77 90.45 -146.55 89.35 C-141.23 63.56 -130.15 39.55 -107.8 24.38 C-84.83 9.56 -57.73 4.58 -30.89 2.5 C-28.63 2.32 -26.38 2.14 -24.12 1.95 C-22.1 1.78 -20.08 1.63 -18.06 1.47 C-14.64 1.19 -14.64 1.19 -11.82 0.61 C-7.87 0.03 -3.99 -0.01 0 0 Z M-8.51 1.13 C-8.51 1.46 -8.51 1.79 -8.51 2.13 C-5.87 2.13 -3.23 2.13 -0.51 2.13 C-0.51 1.8 -0.51 1.47 -0.51 1.13 C-3.15 1.13 -5.79 1.13 -8.51 1.13 Z M-23.51 3.13 C-23.51 3.46 -23.51 3.79 -23.51 4.13 C-21.86 4.13 -20.21 4.13 -18.51 4.13 C-18.51 3.8 -18.51 3.47 -18.51 3.13 C-20.16 3.13 -21.81 3.13 -23.51 3.13 Z M-40.51 4.13 C-36.51 5.13 -36.51 5.13 -36.51 5.13 Z M-144.51 83.13 C-143.51 85.13 -143.51 85.13 -143.51 85.13 Z M-145.51 88.13 C-144.51 90.13 -144.51 90.13 -144.51 90.13 Z M-147.51 98.13 C-146.51 101.13 -146.51 101.13 -146.51 101.13 Z M-148.51 105.13 C-147.51 108.13 -147.51 108.13 -147.51 108.13 Z M-150.51 128.13 C-150.51 130.11 -150.51 132.09 -150.51 134.13 C-150.18 134.13 -149.85 134.13 -149.51 134.13 C-149.51 132.15 -149.51 130.17 -149.51 128.13 C-149.84 128.13 -150.17 128.13 -150.51 128.13 Z M-151.51 172.13 C-150.51 175.13 -150.51 175.13 -150.51 175.13 Z " fill="#FDFDFD" transform="translate(505.5129442214966,334.87415885925293)"/>
<path d="M0 0 C1.32 0.33 2.64 0.66 4 1 C3.88 4.93 2.54 6.7 -0.19 9.31 C-1.13 10.2 -1.13 10.2 -2.1 11.11 C-4 13 -5.55 14.95 -7.12 17.12 C-9.51 20.41 -12.09 23.16 -15 26 C-19.13 30.42 -23.24 34.82 -26.75 39.75 C-30.14 44.43 -34.15 48.52 -38.11 52.72 C-41.98 56.84 -45.56 61.1 -49.04 65.57 C-52.07 69.33 -55.36 72.86 -58.63 76.42 C-63.2 81.4 -67.6 86.51 -71.95 91.68 C-76.53 97.12 -81.18 102.48 -85.96 107.75 C-89.02 111.13 -92.02 114.56 -95 118 C-95.44 118.51 -95.88 119.02 -96.34 119.55 C-101.47 125.48 -106.58 131.41 -111.44 137.56 C-114.11 140.95 -116.91 143.99 -120 147 C-121.68 148.88 -123.33 150.79 -124.98 152.7 C-127.26 155.3 -129.6 157.83 -131.94 160.38 C-135.07 163.81 -138.07 167.28 -140.94 170.94 C-144.37 175.32 -148.08 179.4 -151.87 183.47 C-154.85 186.7 -157.68 190 -160.44 193.44 C-163.84 197.67 -167.41 201.67 -171.12 205.62 C-175 209.76 -178.62 213.95 -182.03 218.49 C-186.77 224.53 -191.94 230.23 -197 236 C-197.71 236.81 -198.42 237.62 -199.15 238.46 C-200.25 239.73 -201.36 240.99 -202.47 242.25 C-203.53 243.47 -204.6 244.68 -205.66 245.9 C-208.82 249.53 -212.01 253.12 -215.25 256.69 C-222.61 264.85 -229.79 273.19 -236.37 282 C-238.42 284.51 -240.69 286.72 -243 289 C-244.88 290.96 -246.72 292.94 -248.56 294.94 C-249.27 295.69 -249.27 295.69 -249.98 296.45 C-252.27 298.93 -254.18 301.28 -256.03 304.13 C-258.08 307.11 -260.15 308.8 -263 311 C-264.3 312.5 -265.55 314.05 -266.75 315.62 C-269.55 319.21 -272.43 322.64 -275.5 326 C-278.37 329.14 -281.08 332.33 -283.69 335.69 C-287.78 340.9 -292.31 345.66 -296.86 350.47 C-300.79 354.64 -304.43 358.94 -307.94 363.47 C-310.52 366.63 -313.27 369.59 -316.06 372.56 C-320.13 376.9 -323.95 381.3 -327.53 386.05 C-329.59 388.79 -331.79 391.39 -334 394 C-340.87 387.2 -347.37 380.09 -353.44 372.56 C-357.1 368.03 -360.95 363.74 -364.92 359.48 C-367.89 356.27 -370.7 352.97 -373.44 349.56 C-377.28 344.79 -381.36 340.32 -385.55 335.85 C-389.57 331.53 -393.29 327.02 -396.98 322.42 C-399.28 319.67 -401.76 317.21 -404.33 314.73 C-406.82 312.16 -408.89 309.31 -411.05 306.46 C-413.27 303.66 -415.64 301.06 -418.06 298.44 C-421.54 294.67 -424.7 290.85 -427.7 286.71 C-430.24 283.37 -433.35 280.62 -436.38 277.75 C-438.49 275.53 -440.28 273.37 -442.12 270.94 C-445.05 267.1 -448.21 263.53 -451.5 260 C-454.66 256.61 -457.71 253.2 -460.5 249.5 C-463.68 245.28 -467.22 241.44 -470.82 237.58 C-473.8 234.36 -476.63 231.06 -479.38 227.62 C-482.93 223.21 -486.68 219.06 -490.56 214.94 C-494.88 210.35 -498.95 205.69 -502.83 200.71 C-505.71 197.11 -508.72 193.62 -511.75 190.12 C-512.58 189.16 -512.58 189.16 -513.43 188.18 C-515.61 185.67 -517.78 183.22 -520.13 180.88 C-522.33 178.67 -524.24 176.31 -526.19 173.88 C-529.96 169.23 -533.87 164.75 -537.89 160.32 C-543.41 154.25 -548.72 148.01 -554 141.73 C-556.53 138.73 -559.09 135.76 -561.69 132.81 C-564 130 -564 130 -564 128 C-562.31 128.12 -562.31 128.12 -560 129 C-558.8 130.4 -557.61 131.81 -556.48 133.26 C-554.26 135.88 -551.65 137.99 -549.05 140.21 C-545.88 142.98 -542.95 145.99 -540 149 C-538.33 150.67 -536.67 152.33 -535 154 C-475.7 213.3 -475.7 213.3 -473.76 215.24 C-472.25 216.75 -470.74 218.26 -469.23 219.77 C-467.28 221.72 -465.34 223.67 -463.41 225.63 C-462.1 226.94 -460.8 228.25 -459.5 229.56 C-458.85 230.22 -458.2 230.88 -457.53 231.56 C-454.16 234.95 -450.75 238.04 -447 241 C-445.9 242.18 -444.84 243.39 -443.81 244.62 C-439.48 249.69 -434.74 254.32 -430 259 C-425.58 263.41 -421.18 267.84 -416.77 272.26 C-408.48 280.58 -400.19 288.9 -391.89 297.22 C-386.87 302.24 -381.85 307.28 -376.84 312.31 C-371.99 317.18 -367.13 322.05 -362.27 326.92 C-360.42 328.77 -358.57 330.63 -356.72 332.49 C-354.14 335.08 -351.56 337.67 -348.97 340.25 C-348.21 341.03 -347.44 341.8 -346.65 342.6 C-345.59 343.65 -345.59 343.65 -344.52 344.72 C-343.91 345.34 -343.3 345.95 -342.67 346.58 C-339.32 349.44 -335.47 349.4 -331.27 349.34 C-327.55 348.78 -325.42 346.68 -323 344 C-322.45 343.4 -321.89 342.79 -321.32 342.17 C-319.52 340.14 -317.76 338.07 -316 336 C-314.79 334.6 -313.59 333.21 -312.38 331.81 C-311.85 331.2 -311.32 330.59 -310.77 329.96 C-307.83 326.71 -304.69 323.68 -301.57 320.61 C-300.76 319.81 -299.96 319.01 -299.12 318.19 C-297.92 317 -297.92 317 -296.7 315.79 C-294.63 313.65 -292.68 311.49 -290.74 309.24 C-286.01 303.78 -280.82 298.78 -275.67 293.71 C-270.89 288.98 -266.36 284.12 -262 279 C-256.49 272.69 -250.77 266.67 -244.78 260.82 C-241.93 258.01 -239.22 255.14 -236.6 252.1 C-232.31 247.14 -227.64 242.59 -222.96 238 C-219.01 234.09 -215.24 230.08 -211.61 225.87 C-204.05 217.1 -195.96 208.84 -187.7 200.73 C-181.6 194.72 -176.05 188.29 -170.55 181.74 C-167.71 178.55 -164.61 175.6 -161.57 172.61 C-157.14 168.23 -152.89 163.8 -148.84 159.06 C-146.65 156.61 -144.34 154.31 -142 152 C-138.49 148.53 -135.17 144.98 -131.95 141.24 C-124.8 133.03 -117.26 125.2 -109.52 117.54 C-105.48 113.52 -101.67 109.36 -98 105 C-94.69 101.07 -91.47 97.28 -87.5 94 C-84.38 91.41 -81.82 88.6 -79.19 85.52 C-76.32 82.22 -73.36 79.01 -70.38 75.81 C-69.77 75.17 -69.17 74.52 -68.55 73.85 C-63.98 68.98 -59.26 64.27 -54.49 59.58 C-50.57 55.68 -47.08 51.57 -43.78 47.12 C-41.75 44.7 -39.48 42.95 -37 41 C-35.84 39.76 -34.71 38.49 -33.62 37.19 C-31.34 34.51 -29.01 31.96 -26.5 29.5 C-24.17 27.21 -21.99 24.87 -19.88 22.38 C-16.02 17.88 -11.79 13.76 -7.53 9.66 C-4.46 6.65 -2.03 3.85 0 0 Z " fill="#FDFDFD" transform="translate(976,808)"/>
<path d="M0 0 C20.29 0.5 20.29 0.5 41 1 C45.5 11.12 45.5 11.12 47.15 15.87 C47.71 17.45 47.71 17.45 48.27 19.07 C48.66 20.19 49.04 21.3 49.44 22.45 C49.85 23.61 50.26 24.78 50.68 25.99 C51.98 29.7 53.27 33.41 54.56 37.12 C55.86 40.84 57.16 44.56 58.46 48.28 C59.26 50.59 60.06 52.9 60.87 55.2 C62.74 60.56 64.67 65.82 67 71 C67.66 70.67 68.32 70.34 69 70 C69.57 68.22 69.57 68.22 69.92 66.06 C70.97 60.91 72.55 56.05 74.27 51.09 C74.58 50.17 74.9 49.25 75.22 48.3 C76.23 45.36 77.24 42.43 78.25 39.5 C78.91 37.57 79.58 35.63 80.24 33.7 C84.1 22.44 88.04 11.22 92 0 C105.86 0.33 119.72 0.66 134 1 C134 39.28 134 77.56 134 117 C124.76 117 115.52 117 106 117 C104.57 114.14 104.87 111.69 104.87 108.49 C104.87 107.48 104.87 107.48 104.87 106.46 C104.86 104.25 104.86 102.03 104.87 99.82 C104.87 98.28 104.87 96.74 104.86 95.21 C104.86 91.98 104.86 88.76 104.87 85.53 C104.88 81.4 104.87 77.27 104.87 73.13 C104.86 69.96 104.86 66.78 104.87 63.61 C104.87 62.08 104.87 60.56 104.86 59.03 C104.86 56.9 104.87 54.77 104.87 52.64 C104.87 51.43 104.87 50.22 104.87 48.97 C105 46 105 46 106 43 C106 42.01 106 41.02 106 40 C103.32 45.81 100.99 51.63 98.94 57.69 C95.89 66.54 92.72 75.34 89.5 84.12 C89.26 84.77 89.03 85.41 88.78 86.08 C84.98 96.44 81.05 106.74 77 117 C70.07 117 63.14 117 56 117 C51.51 108.01 51.51 108.01 50.43 104.56 C50.19 103.81 49.96 103.06 49.71 102.29 C49.48 101.53 49.24 100.78 49 100 C48.51 98.5 48.03 97 47.54 95.5 C47.29 94.76 47.05 94.03 46.81 93.27 C44.75 87.01 42.67 80.89 39.87 74.93 C37.58 69.84 36.12 64.41 34.56 59.06 C33.28 54.73 31.71 50.59 29.96 46.42 C28.86 43.66 27.94 40.82 27 38 C27 64.07 27 90.14 27 117 C18.42 117 9.84 117 1 117 C0.67 78.39 0.34 39.78 0 0 Z " fill="#FDFDFD" transform="translate(518,599)"/>
<path d="M0 0 C11.85 8.94 19.85 20.64 22.88 35.23 C25.24 53.81 23.99 72.48 12.34 87.88 C1.02 100.96 -12.21 109.29 -29.62 111.19 C-48.72 112.56 -67.42 110.18 -82.46 97.33 C-92.6 88.15 -101.28 77.13 -102.62 63.19 C-102.99 59.88 -102.99 59.88 -104.62 57.19 C-105.7 40.34 -102.56 23.48 -91.43 10.21 C-90.83 9.54 -90.24 8.88 -89.62 8.19 C-88.8 7.25 -88.8 7.25 -87.97 6.29 C-65.74 -17.67 -25.56 -17.68 0 0 Z M-62.62 23.19 C-70.9 32.08 -73.01 41.64 -72.9 53.55 C-72.23 62.31 -68.4 70.58 -62.62 77.19 C-53.92 84.57 -43.58 84.96 -32.62 84.19 C-25.01 83.03 -19.63 78.91 -14.62 73.19 C-7.58 62.83 -7.27 51.32 -7.62 39.19 C-8.28 39.19 -8.94 39.19 -9.62 39.19 C-9.66 38.22 -9.7 37.25 -9.75 36.25 C-10.66 30.17 -14.16 25.22 -18.84 21.35 C-33.03 11.64 -49.37 11.92 -62.62 23.19 Z M-101.62 31.19 C-100.62 33.19 -100.62 33.19 -100.62 33.19 Z M-103.62 41.19 C-103.62 42.84 -103.62 44.49 -103.62 46.19 C-103.29 46.19 -102.96 46.19 -102.62 46.19 C-102.62 44.54 -102.62 42.89 -102.62 41.19 C-102.95 41.19 -103.28 41.19 -103.62 41.19 Z M-7.62 44.19 C-6.62 48.19 -6.62 48.19 -6.62 48.19 Z M-7.62 52.19 C-6.62 55.19 -6.62 55.19 -6.62 55.19 Z M-8.62 59.19 C-7.62 61.19 -7.62 61.19 -7.62 61.19 Z " fill="#FDFDFD" transform="translate(789.62109375,607.8125)"/>
<path d="M0 0 C6.28 0.09 12.49 0.19 17.73 3.98 C22.26 9.28 24.94 15.51 27.62 21.89 C29.75 26.67 32.54 30.94 35.38 35.32 C36.44 37.02 37.5 38.72 38.55 40.43 C39.1 41.31 39.64 42.19 40.21 43.1 C42.25 46.41 44.28 49.72 46.31 53.04 C47.04 54.24 47.78 55.44 48.52 56.64 C49.6 58.41 50.68 60.18 51.76 61.95 C52.76 63.59 53.77 65.23 54.77 66.87 C55.35 67.81 55.92 68.76 56.52 69.73 C57.94 72.09 57.94 72.09 60.01 74.01 C59.68 73.02 59.35 72.03 59.01 71.01 C58.92 68.79 58.89 66.56 58.89 64.34 C58.89 63.66 58.89 62.99 58.89 62.3 C58.89 60.07 58.9 57.85 58.91 55.63 C58.91 54.08 58.91 52.54 58.91 51 C58.92 46.94 58.93 42.88 58.94 38.82 C58.95 34.68 58.95 30.54 58.96 26.39 C58.97 18.27 58.99 10.14 59.01 2.01 C67.36 -2.16 77.68 1.65 87.01 2.01 C87.01 40.29 87.01 78.57 87.01 118.01 C76.45 118.01 65.89 118.01 55.01 118.01 C47.14 109.1 47.14 109.1 45.53 104.79 C42.79 98.21 39.01 92.47 35.13 86.51 C30.97 79.95 27 73.33 23.36 66.46 C21.6 63.27 19.59 60.29 17.52 57.29 C15.3 53.94 13.31 50.47 11.3 46.98 C10.15 44.88 10.15 44.88 8.01 44.01 C8.34 44.67 8.67 45.33 9.01 46.01 C9.1 48.29 9.13 50.57 9.12 52.85 C9.12 53.55 9.12 54.25 9.12 54.98 C9.12 57.3 9.11 59.63 9.11 61.96 C9.1 63.57 9.1 65.18 9.1 66.79 C9.1 71.04 9.09 75.28 9.08 79.53 C9.07 83.86 9.06 88.19 9.06 92.52 C9.05 101.01 9.03 109.51 9.01 118.01 C0.1 118.01 -8.81 118.01 -17.99 118.01 C-19.19 115.61 -19.12 114.13 -19.12 111.45 C-19.12 110.49 -19.12 109.53 -19.13 108.54 C-19.13 107.48 -19.12 106.43 -19.12 105.34 C-19.12 104.23 -19.13 103.11 -19.13 101.97 C-19.13 98.28 -19.13 94.6 -19.13 90.91 C-19.13 88.36 -19.13 85.81 -19.13 83.26 C-19.13 77.91 -19.13 72.56 -19.12 67.21 C-19.12 61.02 -19.12 54.82 -19.12 48.63 C-19.13 42.68 -19.13 36.73 -19.13 30.78 C-19.13 28.24 -19.13 25.71 -19.13 23.17 C-19.13 19.63 -19.13 16.1 -19.12 12.56 C-19.12 11.5 -19.13 10.44 -19.13 9.35 C-19.13 8.39 -19.12 7.43 -19.12 6.45 C-19.12 5.61 -19.12 4.77 -19.12 3.91 C-18.74 -1.75 -4.66 0.02 0 0 Z " fill="#FDFDFD" transform="translate(865.9923095703125,597.9881591796875)"/>
<path d="M0 0 C1.12 -0.01 2.24 -0.01 3.4 -0.02 C5.23 -0.02 5.23 -0.02 7.1 -0.02 C8.35 -0.03 9.6 -0.03 10.89 -0.03 C13.54 -0.04 16.2 -0.04 18.85 -0.04 C22.24 -0.04 25.62 -0.05 29.01 -0.07 C32.25 -0.08 35.49 -0.08 38.73 -0.09 C39.94 -0.09 41.16 -0.1 42.4 -0.11 C44.11 -0.1 44.11 -0.1 45.85 -0.1 C46.85 -0.1 47.84 -0.1 48.87 -0.1 C52.08 0.17 54.72 1.07 57.75 2.15 C59.43 2.35 59.43 2.35 61.14 2.55 C65.42 3.25 68.72 4.69 72.56 6.65 C73.61 7.18 73.61 7.18 74.68 7.72 C86.45 13.93 96.45 23.9 100.97 36.57 C105.79 52.51 105.5 71.09 98.62 86.4 C90.53 101.08 76.61 110.33 60.84 115.01 C47.65 118.11 34.28 117.47 20.81 117.33 C18.28 117.32 15.75 117.3 13.21 117.29 C7.06 117.26 0.9 117.21 -5.25 117.15 C-6.45 114.75 -6.38 113.26 -6.38 110.58 C-6.38 109.62 -6.38 108.66 -6.39 107.67 C-6.38 106.62 -6.38 105.56 -6.38 104.47 C-6.38 103.36 -6.38 102.25 -6.39 101.1 C-6.39 97.42 -6.39 93.73 -6.38 90.05 C-6.38 87.5 -6.39 84.95 -6.39 82.4 C-6.39 77.04 -6.39 71.69 -6.38 66.34 C-6.38 60.15 -6.38 53.96 -6.38 47.76 C-6.39 41.81 -6.39 35.86 -6.38 29.91 C-6.38 27.37 -6.38 24.84 -6.39 22.3 C-6.39 18.77 -6.39 15.23 -6.38 11.69 C-6.38 10.63 -6.38 9.57 -6.39 8.48 C-6.38 7.52 -6.38 6.57 -6.38 5.58 C-6.38 4.74 -6.38 3.91 -6.38 3.04 C-6.11 -0.92 -3.35 0.01 0 0 Z M22.75 26.15 C22.66 28.2 22.63 30.26 22.64 32.32 C22.64 32.96 22.64 33.61 22.64 34.27 C22.64 36.41 22.64 38.54 22.65 40.68 C22.65 42.16 22.65 43.64 22.66 45.12 C22.66 49.01 22.67 52.91 22.68 56.81 C22.69 60.78 22.7 64.76 22.7 68.73 C22.71 76.54 22.73 84.34 22.75 92.15 C26.54 92.06 30.33 91.95 34.12 91.83 C35.19 91.81 36.25 91.79 37.34 91.76 C48.43 91.39 56.92 89.28 65.37 81.83 C71.82 74.54 72.86 67.47 73.37 58.08 C73.43 57.28 73.48 56.48 73.53 55.65 C73.57 54.87 73.62 54.1 73.66 53.3 C73.7 52.6 73.74 51.89 73.79 51.17 C73.75 49.02 73.35 47.2 72.75 45.15 C72.09 45.15 71.43 45.15 70.75 45.15 C70.67 44.44 70.58 43.74 70.5 43.02 C69 37.28 66.09 34.1 61.19 30.96 C53.88 26.93 29.85 19.05 22.75 26.15 Z M23.75 92.15 C23.75 92.48 23.75 92.81 23.75 93.15 C29.36 93.15 34.97 93.15 40.75 93.15 C40.75 92.82 40.75 92.49 40.75 92.15 C35.14 92.15 29.53 92.15 23.75 92.15 Z " fill="#FDFDFD" transform="translate(176.250732421875,598.854736328125)"/>
<path d="M0 0 C1.12 -0.01 2.24 -0.01 3.4 -0.02 C5.23 -0.02 5.23 -0.02 7.1 -0.02 C8.35 -0.03 9.6 -0.03 10.89 -0.03 C13.54 -0.04 16.2 -0.04 18.85 -0.04 C22.24 -0.04 25.62 -0.05 29.01 -0.07 C32.25 -0.08 35.49 -0.08 38.73 -0.09 C39.94 -0.09 41.16 -0.1 42.4 -0.11 C44.11 -0.1 44.11 -0.1 45.85 -0.1 C46.85 -0.1 47.84 -0.1 48.87 -0.1 C52.08 0.17 54.72 1.07 57.75 2.15 C59.43 2.35 59.43 2.35 61.14 2.55 C65.42 3.25 68.72 4.69 72.56 6.65 C73.61 7.18 73.61 7.18 74.68 7.72 C86.4 13.91 96.45 23.87 100.97 36.5 C106.09 53.94 105.25 73.21 96.54 89.33 C87.49 103.58 73.85 111.96 57.6 115.77 C45.56 118.29 33.04 117.46 20.81 117.33 C18.28 117.32 15.75 117.3 13.21 117.29 C7.06 117.26 0.9 117.21 -5.25 117.15 C-6.45 114.75 -6.38 113.26 -6.38 110.58 C-6.38 109.62 -6.38 108.66 -6.39 107.67 C-6.38 106.62 -6.38 105.56 -6.38 104.47 C-6.38 103.36 -6.38 102.25 -6.39 101.1 C-6.39 97.42 -6.39 93.73 -6.38 90.05 C-6.38 87.5 -6.39 84.95 -6.39 82.4 C-6.39 77.04 -6.39 71.69 -6.38 66.34 C-6.38 60.15 -6.38 53.96 -6.38 47.76 C-6.39 41.81 -6.39 35.86 -6.38 29.91 C-6.38 27.37 -6.38 24.84 -6.39 22.3 C-6.39 18.77 -6.39 15.23 -6.38 11.69 C-6.38 10.63 -6.38 9.57 -6.39 8.48 C-6.38 7.52 -6.38 6.57 -6.38 5.58 C-6.38 4.74 -6.38 3.91 -6.38 3.04 C-6.11 -0.92 -3.35 0.01 0 0 Z M22.75 25.15 C22.75 47.59 22.75 70.03 22.75 93.15 C28.69 93.15 34.63 93.15 40.75 93.15 C40.75 92.82 40.75 92.49 40.75 92.15 C41.83 91.9 42.92 91.66 44.04 91.41 C45.48 91.07 46.93 90.73 48.37 90.4 C49.09 90.24 49.8 90.08 50.53 89.92 C57.05 88.36 61.92 85.48 66.44 80.46 C67 79.86 67.56 79.25 68.14 78.63 C72.74 71.54 73.16 64.34 72.94 56.08 C72.92 55.12 72.91 54.16 72.9 53.17 C72.86 50.83 72.81 48.49 72.75 46.15 C72.09 46.15 71.43 46.15 70.75 46.15 C71.24 44.66 71.24 44.66 71.75 43.15 C71.09 43.15 70.43 43.15 69.75 43.15 C69.67 42.61 69.58 42.07 69.5 41.52 C67.25 34.41 63.24 31.9 56.89 28.44 C45.32 23.67 35.75 25.15 22.75 25.15 Z " fill="#FDFDFD" transform="translate(999.250732421875,598.854736328125)"/>
<path d="M0 0 C1.16 0.05 2.33 0.1 3.52 0.16 C4.78 0.21 6.04 0.26 7.33 0.31 C8.66 0.38 10 0.44 11.33 0.51 C12.67 0.57 14.01 0.63 15.35 0.68 C18.63 0.82 21.92 0.98 25.2 1.14 C27.9 6.41 30.36 11.71 32.61 17.2 C32.93 17.97 33.24 18.73 33.57 19.53 C34.26 21.19 34.94 22.86 35.63 24.52 C37.11 28.12 38.59 31.72 40.08 35.31 C40.87 37.24 41.67 39.16 42.46 41.08 C47.64 53.62 52.87 66.15 58.1 78.68 C60.44 84.3 62.78 89.92 65.12 95.54 C66.19 98.11 67.27 100.68 68.34 103.24 C68.99 104.8 69.64 106.36 70.29 107.92 C70.74 108.98 70.74 108.98 71.19 110.06 C73.2 114.91 73.2 114.91 73.2 117.14 C62.64 117.14 52.08 117.14 41.2 117.14 C38.69 112.11 36.43 107.45 34.45 102.26 C34.02 101.15 33.6 100.04 33.16 98.89 C32.2 96.14 32.2 96.14 32.2 94.14 C18.01 94.47 3.82 94.8 -10.8 95.14 C-13.84 102.45 -16.85 109.78 -19.8 117.14 C-30.03 117.14 -40.26 117.14 -50.8 117.14 C-51.99 113.55 -51.57 112.98 -50.06 109.65 C-49.65 108.74 -49.25 107.84 -48.84 106.91 C-48.39 105.93 -47.94 104.95 -47.48 103.94 C-46.55 101.84 -45.61 99.74 -44.68 97.64 C-44.2 96.56 -43.72 95.48 -43.22 94.37 C-41.02 89.37 -38.92 84.34 -36.83 79.3 C-36.22 77.84 -36.22 77.84 -35.6 76.34 C-34.35 73.34 -33.11 70.33 -31.86 67.32 C-30.11 63.11 -28.36 58.9 -26.61 54.68 C-26.18 53.67 -25.76 52.66 -25.33 51.61 C-21.64 42.74 -17.9 33.89 -14.13 25.05 C-11.27 18.31 -8.54 11.53 -5.92 4.7 C-4.42 1.28 -3.82 0.18 0 0 Z M9.2 35.14 C9.02 35.7 8.83 36.26 8.64 36.84 C5.23 47.15 1.81 57.43 -1.95 67.62 C-2.9 70.01 -2.9 70.01 -2.8 72.14 C6.11 72.14 15.02 72.14 24.2 72.14 C24.2 70.82 24.2 69.5 24.2 68.14 C23.54 68.14 22.88 68.14 22.2 68.14 C22.2 66.49 22.2 64.84 22.2 63.14 C21.54 63.14 20.88 63.14 20.2 63.14 C20.2 61.16 20.2 59.18 20.2 57.14 C19.54 57.14 18.88 57.14 18.2 57.14 C18.53 56.15 18.86 55.16 19.2 54.14 C18.54 54.14 17.88 54.14 17.2 54.14 C17.22 53.37 17.24 52.61 17.27 51.82 C17.33 49.03 17.33 49.03 16.2 46.14 C15.54 46.14 14.88 46.14 14.2 46.14 C14.53 45.15 14.86 44.16 15.2 43.14 C14.54 43.14 13.88 43.14 13.2 43.14 C13.06 42.19 12.91 41.24 12.77 40.26 C12.37 37.24 12.37 37.24 11.2 35.14 C10.54 35.14 9.88 35.14 9.2 35.14 Z " fill="#FDFDFD" transform="translate(419.79736328125,598.86474609375)"/>
<path d="M0 0 C2.12 0 4.23 0 6.35 0.01 C10.76 0.01 15.18 0.02 19.59 0.05 C25.24 0.08 30.88 0.09 36.52 0.09 C41.93 0.1 47.34 0.11 52.75 0.12 C53.77 0.13 54.8 0.13 55.85 0.13 C58.76 0.14 61.67 0.15 64.58 0.17 C65.43 0.17 66.28 0.17 67.16 0.17 C73.26 0.21 79.27 0.38 85.11 2.33 C86.8 2.46 88.49 2.55 90.18 2.61 C91.16 2.65 92.14 2.68 93.14 2.72 C95.21 2.79 97.28 2.86 99.35 2.93 C100.32 2.97 101.3 3.01 102.3 3.05 C103.2 3.08 104.1 3.11 105.02 3.14 C107.11 3.33 107.11 3.33 108.11 4.33 C108.93 4.33 109.76 4.33 110.61 4.33 C111.43 4.33 112.26 4.33 113.11 4.33 C113.44 4.66 113.77 4.99 114.11 5.33 C116 5.49 117.9 5.61 119.8 5.7 C127.09 6.2 134.02 7.63 141.11 9.33 C141.82 9.5 142.53 9.67 143.27 9.84 C151.43 11.99 159.27 15.26 167.11 18.33 C167.11 18.99 167.11 19.65 167.11 20.33 C168.18 20.48 168.18 20.48 169.27 20.63 C181.87 23.73 191.59 35.55 199.11 45.33 C199.67 46.04 200.23 46.75 200.8 47.48 C207.67 56.85 210.87 68.54 213.55 79.7 C213.72 80.43 213.9 81.17 214.08 81.92 C215.24 87.07 215.24 87.07 214.11 89.33 C211.8 83.4 209.87 77.44 208.11 71.33 C207.45 71.33 206.79 71.33 206.11 71.33 C205.63 70.26 205.16 69.18 204.67 68.08 C195.57 50.01 178.35 34.06 159.11 27.33 C150.64 27.48 145.54 32.63 139.73 38.14 C138.58 39.22 137.43 40.3 136.27 41.38 C135.72 41.89 135.18 42.41 134.61 42.94 C132.81 44.61 130.97 46.22 129.11 47.83 C125.54 50.92 122.07 54.12 118.61 57.33 C114.47 61.16 110.31 64.95 106.04 68.64 C103.83 70.57 101.66 72.54 99.48 74.52 C96.11 77.56 92.7 80.54 89.23 83.48 C82.66 89.04 76.34 94.82 70.09 100.74 C65.12 105.44 60 109.92 54.77 114.33 C51.28 117.28 48.03 120.34 44.87 123.63 C42.63 125.79 40.23 127.7 37.8 129.64 C34 132.69 30.51 135.84 27.11 139.33 C22.89 143.65 18.41 147.41 13.7 151.18 C10.63 153.72 7.91 156.5 5.14 159.36 C2.91 161.52 0.56 163.42 -1.89 165.33 C-5.88 168.44 -9.43 171.76 -12.96 175.39 C-16.73 179.17 -20.83 182.59 -24.91 186.03 C-25.55 186.56 -26.18 187.09 -26.83 187.64 C-27.39 188.11 -27.96 188.58 -28.54 189.07 C-30.03 190.31 -30.03 190.31 -30.89 192.33 C-32.21 192 -33.53 191.67 -34.89 191.33 C-35.59 189.54 -35.59 189.54 -35.89 187.33 C-34.63 185.58 -34.63 185.58 -32.77 183.89 C-32.16 183.34 -31.56 182.78 -30.95 182.21 C-30.27 181.59 -29.59 180.97 -28.89 180.33 C-27.22 178.67 -25.55 177 -23.89 175.33 C-22.91 174.34 -21.92 173.36 -20.94 172.38 C-20.4 171.84 -19.87 171.31 -19.32 170.77 C-18.76 170.2 -18.19 169.63 -17.6 169.05 C-16.32 167.77 -15.04 166.49 -13.76 165.21 C-13.08 164.53 -12.4 163.85 -11.7 163.15 C3.91 147.55 19.53 131.95 35.14 116.35 C44.17 107.33 53.19 98.31 62.22 89.29 C70.1 81.42 77.99 73.54 85.86 65.67 C90.03 61.5 94.2 57.33 98.38 53.17 C102.3 49.25 106.21 45.34 110.13 41.42 C111.57 39.98 113.01 38.54 114.45 37.11 C116.41 35.15 118.37 33.19 120.33 31.23 C120.91 30.66 121.48 30.08 122.08 29.49 C126.09 25.58 126.09 25.58 127.36 20.33 C127.28 19.34 127.19 18.35 127.11 17.33 C123.59 14.98 120.44 14.48 116.36 13.83 C115.57 13.7 114.78 13.57 113.97 13.44 C98.88 11.12 83.62 10.21 68.38 9.67 C67.53 9.64 66.67 9.61 65.8 9.57 C64.69 9.54 64.69 9.54 63.56 9.5 C61.11 9.33 61.11 9.33 58.05 8.83 C52.83 8.17 47.66 8.13 42.4 8.08 C40.1 8.05 37.8 8.02 35.5 7.98 C31.9 7.94 28.3 7.89 24.7 7.85 C21.2 7.81 17.71 7.76 14.21 7.71 C13.15 7.7 12.09 7.69 10.99 7.68 C5.24 7.59 -0.06 7.04 -5.67 5.79 C-8.64 5.17 -11.53 5.01 -14.55 4.91 C-15.7 4.88 -16.84 4.84 -18.01 4.8 C-19.17 4.77 -20.32 4.74 -21.52 4.7 C-23.31 4.65 -23.31 4.65 -25.14 4.59 C-28.05 4.49 -30.97 4.41 -33.89 4.33 C-33.89 4 -33.89 3.67 -33.89 3.33 C-22.76 -0.54 -11.63 -0.07 0 0 Z " fill="#FDFDFD" transform="translate(103.890625,338.671875)"/>
<path d="M0 0 C1.04 8.46 1.3 16.92 1.5 25.44 C1.52 26.22 1.54 27.01 1.56 27.81 C1.89 41.05 2.08 54.28 2.25 67.51 C2.26 68.33 2.27 69.15 2.28 69.99 C2.39 78.34 2.49 86.69 2.58 95.03 C2.78 115.78 2.78 115.78 3.47 136.52 C3.51 137.35 3.54 138.18 3.58 139.04 C3.79 143.07 3.79 143.07 4.51 147.03 C5.24 149.98 5.16 152.91 5.25 155.94 C6.47 180.76 16.16 206.67 33 225 C34.02 226.14 34.02 226.14 35.06 227.3 C44.82 237.11 61.67 246.48 75.38 249 C78.41 249.61 81.17 250.4 84.06 251.5 C94.12 254.96 105.49 255.18 116.04 255.66 C120.9 255.9 120.9 255.9 122 257 C123.67 257.15 125.35 257.23 127.03 257.28 C128.07 257.32 129.11 257.36 130.18 257.39 C131.82 257.45 131.82 257.45 133.5 257.5 C154.18 258.18 154.18 258.18 156 260 C157.69 260.11 159.39 260.15 161.08 260.16 C162.17 260.17 163.25 260.18 164.37 260.19 C165.55 260.2 166.74 260.2 167.95 260.21 C170.43 260.24 172.91 260.27 175.39 260.3 C179.32 260.34 183.25 260.38 187.18 260.4 C190.96 260.43 194.74 260.47 198.52 260.52 C200.28 260.53 200.28 260.53 202.07 260.53 C203.17 260.55 204.27 260.57 205.4 260.58 C206.36 260.59 207.33 260.6 208.32 260.61 C211.52 261.08 213.43 262.06 216 264 C216.31 266.69 216.31 266.69 216 269 C213 270.5 209.93 270.16 206.64 270.16 C205.5 270.17 205.5 270.17 204.34 270.18 C201.81 270.19 199.28 270.2 196.75 270.2 C195.87 270.21 195 270.21 194.1 270.21 C189.47 270.23 184.83 270.24 180.19 270.24 C176.4 270.24 172.6 270.26 168.81 270.28 C147.97 270.41 127.63 270.29 107 267 C104.86 266.68 102.72 266.37 100.58 266.06 C83.53 263.57 66.42 259.94 51 252 C49.82 251.47 49.82 251.47 48.62 250.93 C29.47 242.13 12.55 226.27 4.56 206.56 C4.03 205.05 3.51 203.53 3 202 C2.44 200.54 1.88 199.08 1.31 197.62 C-0.27 193.25 -1.14 189.38 -1.56 184.75 C-1.65 183.86 -1.73 182.97 -1.82 182.05 C-1.88 181.37 -1.94 180.7 -2 180 C-2.33 180 -2.66 180 -3 180 C-4.74 169.87 -5.28 160.06 -5.24 149.8 C-5.24 148.23 -5.25 146.66 -5.25 145.09 C-5.25 140.87 -5.25 136.65 -5.24 132.44 C-5.23 128.01 -5.23 123.57 -5.23 119.14 C-5.23 111.71 -5.22 104.29 -5.21 96.86 C-5.19 88.28 -5.18 79.69 -5.19 71.11 C-5.19 61.95 -5.18 52.79 -5.17 43.63 C-5.17 41 -5.17 38.37 -5.17 35.73 C-5.17 31.6 -5.16 27.47 -5.15 23.33 C-5.15 21.82 -5.15 20.3 -5.15 18.79 C-5.15 16.72 -5.14 14.65 -5.13 12.58 C-5.13 11.42 -5.13 10.27 -5.13 9.07 C-5.01 6.24 -4.78 3.73 -4 1 C-2 0 -2 0 0 0 Z M-3 171 C-2 174 -2 174 -2 174 Z M133 259 C133 259.33 133 259.66 133 260 C137.29 260 141.58 260 146 260 C146 259.67 146 259.34 146 259 C141.71 259 137.42 259 133 259 Z M206 262 C206 262.33 206 262.66 206 263 C207.65 263 209.3 263 211 263 C211 262.67 211 262.34 211 262 C209.35 262 207.7 262 206 262 Z " fill="#FDFDFD" transform="translate(351,51)"/>
<path d="M0 0 C0.86 0 1.73 0 2.62 0.01 C3.5 0.01 4.38 0 5.29 0 C7.16 0 9.03 0 10.89 0.01 C13.76 0.01 16.63 0.01 19.49 0 C21.31 0 23.12 0 24.93 0.01 C26.22 0 26.22 0 27.54 0 C33.61 0.02 33.61 0.02 35.84 1.14 C36.72 1.55 36.72 1.55 37.61 1.97 C44.39 5.23 48.96 8.5 52.84 15.14 C54.94 21.48 54.77 29.39 52.65 35.64 C47.68 42.49 47.68 42.49 43.53 43.95 C42.97 44.01 42.41 44.08 41.84 44.14 C41.84 44.8 41.84 45.46 41.84 46.14 C42.5 46.32 43.16 46.51 43.84 46.7 C50.24 49.77 55.31 54.43 57.84 61.14 C59.79 67.78 59.65 74.89 56.87 81.26 C52.96 88.39 47.51 92.52 39.84 95.14 C30.23 97.72 20.51 97.37 10.65 97.26 C9.02 97.25 7.38 97.24 5.74 97.24 C1.78 97.21 -2.19 97.18 -6.16 97.14 C-7.84 93.78 -7.3 89.99 -7.29 86.3 C-7.29 85.38 -7.29 84.47 -7.3 83.52 C-7.3 80.49 -7.3 77.45 -7.29 74.42 C-7.29 72.31 -7.3 70.21 -7.3 68.11 C-7.3 63.7 -7.3 59.29 -7.29 54.88 C-7.29 49.22 -7.29 43.55 -7.29 37.89 C-7.3 33.54 -7.3 29.2 -7.29 24.86 C-7.29 22.77 -7.29 20.68 -7.3 18.59 C-7.3 15.68 -7.3 12.76 -7.29 9.85 C-7.29 8.98 -7.29 8.11 -7.3 7.21 C-7.27 0.12 -7.08 0.03 0 0 Z M4.84 11.14 C4.84 21.37 4.84 31.6 4.84 42.14 C8.63 42.04 12.43 41.93 16.34 41.83 C17.52 41.8 18.7 41.78 19.92 41.75 C27.18 41.5 33.46 40.91 39.28 36.14 C42.38 32.17 42.16 27.95 41.84 23.14 C41.44 19.38 41.44 19.38 39.84 16.14 C32.5 10.82 24.89 9.82 16.03 9.95 C14.74 9.95 14.74 9.95 13.43 9.95 C8.98 9.84 8.98 9.84 4.84 11.14 Z M4.84 52.14 C4.84 63.69 4.84 75.24 4.84 87.14 C8.61 87.02 12.39 86.89 16.28 86.76 C17.45 86.73 18.62 86.7 19.83 86.66 C31.71 86.52 31.71 86.52 41.84 81.14 C42.4 80.62 42.95 80.11 43.53 79.58 C46.42 76.41 46.14 73.17 46.4 69.01 C46.49 67.73 46.57 66.45 46.66 65.13 C46.75 63.65 46.75 63.65 46.84 62.14 C46.18 62.14 45.52 62.14 44.84 62.14 C44.78 61.56 44.72 60.98 44.65 60.39 C43.45 57.07 41.8 56.05 38.84 54.14 C31.92 51 25.4 50.74 17.9 50.89 C16.86 50.89 15.82 50.9 14.75 50.9 C9.63 50.75 9.63 50.75 4.84 52.14 Z M46.84 65.14 C46.84 67.78 46.84 70.42 46.84 73.14 C47.17 73.14 47.5 73.14 47.84 73.14 C47.84 70.5 47.84 67.86 47.84 65.14 C47.51 65.14 47.18 65.14 46.84 65.14 Z " fill="#FDFDFD" transform="translate(486.16062927246094,459.8610534667969)"/>
<path d="M0 0 C9.57 0.33 19.14 0.66 29 1 C29 39.28 29 77.56 29 117 C19.76 117 10.52 117 1 117 C0.67 78.39 0.34 39.78 0 0 Z " fill="#FDFDFD" transform="translate(314,599)"/>
<path d="M0 0 C2.02 0.09 4.05 0.25 6.06 0.44 C7.72 0.59 7.72 0.59 9.41 0.75 C10.26 0.83 11.12 0.91 12 1 C12.38 1.88 12.75 2.75 13.14 3.66 C13.39 4.25 13.64 4.84 13.9 5.44 C14.48 6.79 15.06 8.14 15.64 9.49 C17.29 13.35 18.95 17.21 20.6 21.07 C23.74 28.39 26.88 35.71 30.01 43.03 C31.29 46.03 32.58 49.04 33.87 52.04 C34.5 53.51 35.13 54.98 35.76 56.45 C38.86 63.72 41.98 70.97 45.16 78.2 C45.64 79.28 46.11 80.36 46.6 81.46 C47.46 83.43 48.33 85.38 49.21 87.34 C49.77 88.61 49.77 88.61 50.34 89.91 C50.66 90.63 50.99 91.36 51.32 92.1 C52 94 52 94 52 97 C48.04 97 44.08 97 40 97 C37.14 91.37 34.28 85.73 31.62 80 C31.31 79.32 30.99 78.64 30.66 77.94 C30 76 30 76 30 72 C14.16 72.33 -1.68 72.66 -18 73 C-20.97 79.93 -23.94 86.86 -27 94 C-27.66 94.99 -28.32 95.98 -29 97 C-31.6 97.29 -31.6 97.29 -34.62 97.19 C-36.13 97.15 -36.13 97.15 -37.66 97.11 C-38.43 97.07 -39.21 97.04 -40 97 C-41.14 93.59 -40.94 93.22 -39.55 90.1 C-39.2 89.31 -38.86 88.51 -38.5 87.7 C-38.11 86.83 -37.72 85.96 -37.31 85.06 C-36.46 83.13 -35.61 81.19 -34.76 79.26 C-34.31 78.23 -33.85 77.2 -33.38 76.15 C-31.09 70.93 -28.86 65.68 -26.62 60.44 C-24.42 55.29 -22.21 50.15 -20 45 C-19.62 44.12 -19.24 43.24 -18.85 42.33 C-16.28 36.33 -13.7 30.34 -11.12 24.35 C-10.25 22.32 -9.38 20.3 -8.51 18.28 C-7.29 15.43 -6.06 12.59 -4.83 9.74 C-4.46 8.87 -4.09 8 -3.7 7.11 C-3.36 6.32 -3.02 5.52 -2.67 4.71 C-2.37 4.01 -2.07 3.32 -1.76 2.6 C-1 1 -1 1 0 0 Z M5 15 C4.72 15.68 4.43 16.36 4.14 17.06 C1.68 22.99 -0.8 28.9 -3.3 34.81 C-4.16 36.85 -5.02 38.89 -5.88 40.93 C-6.47 42.32 -7.05 43.72 -7.65 45.11 C-8.51 47.16 -9.37 49.2 -10.23 51.25 C-10.74 52.45 -11.25 53.65 -11.77 54.89 C-13.12 58.1 -13.12 58.1 -14 62 C-1.13 62 11.74 62 25 62 C24.01 58.7 23.02 55.4 22 52 C21.34 52 20.68 52 20 52 C20 50.35 20 48.7 20 47 C19.34 47 18.68 47 18 47 C17.67 44.69 17.34 42.38 17 40 C16.34 40 15.68 40 15 40 C15 38.35 15 36.7 15 35 C14.34 35 13.68 35 13 35 C13.02 34.22 13.04 33.43 13.06 32.62 C13.19 30.02 13.19 30.02 12 28 C11.34 28 10.68 28 10 28 C10 26.35 10 24.7 10 23 C9.34 23 8.68 23 8 23 C7.88 22.24 7.75 21.47 7.62 20.69 C7.12 17.8 7.12 17.8 5 15 Z " fill="#FDFDFD" transform="translate(697,460)"/>
<path d="M0 0 C3.3 0.33 6.6 0.66 10 1 C10.33 13.87 10.66 26.74 11 40 C16.91 34.93 16.91 34.93 22.44 29.56 C25.17 26.8 27.92 24.15 30.88 21.62 C33.73 19.18 36.43 16.62 39.07 13.95 C40.02 12.98 40.98 12.03 41.94 11.07 C44.03 9.01 46.04 6.95 47.92 4.7 C50.34 2.03 52.18 0.18 55.9 -0.19 C60.65 -0.22 65.3 0.32 70 1 C63.01 9.74 54.42 16.95 45.99 24.26 C43.66 26.3 41.36 28.37 39.06 30.44 C38.23 31.19 37.39 31.94 36.54 32.71 C34.83 34.25 33.13 35.8 31.43 37.35 C30.63 38.08 29.83 38.81 29 39.56 C28.28 40.22 27.56 40.89 26.81 41.57 C25 43 25 43 23 43 C25.57 48.01 29.29 51.53 33.27 55.43 C33.98 56.13 34.69 56.84 35.42 57.57 C37.69 59.82 39.97 62.07 42.25 64.31 C44.51 66.55 46.78 68.79 49.04 71.03 C50.44 72.42 51.84 73.81 53.25 75.19 C57.15 79.05 60.85 83.02 64.41 87.2 C66.01 89.01 67.69 90.69 69.44 92.38 C72 95 72 95 72 97 C66.88 98.05 62.02 98.63 57 97 C51.73 93.44 47.85 88.15 43.88 83.26 C40.89 79.67 37.66 76.32 34.44 72.94 C33.2 71.62 31.97 70.31 30.73 68.99 C30.12 68.34 29.51 67.69 28.88 67.02 C26.92 64.92 24.97 62.81 23.02 60.7 C22.37 60 21.73 59.31 21.07 58.59 C19.84 57.27 18.61 55.94 17.39 54.61 C14.53 51.39 14.53 51.39 11 49 C10.67 64.84 10.34 80.68 10 97 C6.7 97 3.4 97 0 97 C-1.68 93.64 -1.14 89.85 -1.13 86.16 C-1.13 85.24 -1.13 84.33 -1.13 83.39 C-1.14 80.35 -1.14 77.31 -1.13 74.28 C-1.13 72.18 -1.13 70.07 -1.14 67.97 C-1.14 63.56 -1.14 59.15 -1.13 54.74 C-1.12 49.08 -1.13 43.41 -1.13 37.75 C-1.14 33.41 -1.14 29.06 -1.13 24.72 C-1.13 22.63 -1.13 20.54 -1.14 18.45 C-1.14 15.54 -1.13 12.62 -1.13 9.71 C-1.13 8.84 -1.13 7.97 -1.14 7.07 C-1.11 1.11 -1.11 1.11 0 0 Z " fill="#FDFDFD" transform="translate(891,460)"/>
<path d="M0 0 C0.75 0.01 1.5 0.01 2.27 0.02 C15.91 0.32 24.76 6.44 34.69 15.31 C34.09 18.43 33.73 19.27 31.38 21.62 C28.69 23.31 28.69 23.31 26.71 23.09 C24.44 22.22 23.29 21.21 21.56 19.5 C14.3 13.13 6.68 11.62 -2.85 11.93 C-12.4 12.99 -22.12 17.19 -28.29 24.72 C-35.55 35.44 -38.76 46.37 -37.31 59.31 C-35.17 68.9 -31.01 77.98 -23.31 84.31 C-15.27 89.01 -8.7 90.5 0.5 90.56 C1.27 90.58 2.04 90.6 2.83 90.62 C10.36 90.68 16.52 88.97 22.12 83.75 C22.78 83.15 23.44 82.55 24.12 81.93 C25.78 80.38 25.78 80.38 26.69 78.31 C30.68 78.93 33.43 81.02 36.69 83.31 C35.79 88.81 31.82 91.9 27.69 95.31 C19.31 100.6 10.75 102.7 0.94 102.62 C0.15 102.62 -0.63 102.62 -1.44 102.61 C-15.75 102.32 -27.26 97.53 -37.31 87.31 C-48.81 74.29 -51.2 60.72 -50.51 43.9 C-49.65 32.58 -43.15 21.33 -35.31 13.31 C-25.18 5.32 -12.99 -0.1 0 0 Z M-3.31 92.31 C-3.31 92.64 -3.31 92.97 -3.31 93.31 C-0.67 93.31 1.97 93.31 4.69 93.31 C4.69 92.98 4.69 92.65 4.69 92.31 C2.05 92.31 -0.59 92.31 -3.31 92.31 Z " fill="#FDFDFD" transform="translate(821.3125,456.6875)"/>
<path d="M0 0 C3.8 2.22 5.02 4.65 6.66 8.66 C7.12 9.79 7.59 10.91 8.07 12.07 C8.54 13.24 9.01 14.42 9.5 15.62 C10.45 17.93 11.4 20.23 12.34 22.54 C12.79 23.64 13.24 24.74 13.7 25.88 C15.16 29.39 16.71 32.86 18.32 36.31 C19 38 19 38 19 40 C22.02 39.35 22.02 39.35 22.95 37.43 C23.22 36.75 23.49 36.08 23.76 35.38 C24.07 34.62 24.38 33.85 24.7 33.07 C25.03 32.24 25.35 31.41 25.69 30.56 C26.39 28.84 27.1 27.11 27.8 25.39 C28.17 24.5 28.53 23.61 28.9 22.7 C30.65 18.4 32.47 14.13 34.31 9.88 C34.64 9.1 34.96 8.32 35.3 7.53 C36.12 5.65 37.05 3.82 38 2 C41.23 0.92 43.62 0.86 47 1 C47.66 1.33 48.32 1.66 49 2 C49 20.81 49 39.62 49 59 C46.69 59 44.38 59 42 59 C39.52 55.27 39.77 53.37 39.8 48.93 C39.81 48.24 39.81 47.56 39.81 46.85 C39.82 44.67 39.85 42.49 39.88 40.31 C39.89 38.83 39.89 37.35 39.9 35.87 C39.92 32.25 39.96 28.62 40 25 C39.34 25 38.68 25 38 25 C37.62 26.22 37.24 27.43 36.86 28.68 C34.75 34.99 32.02 41 29.31 47.06 C28.8 48.21 28.29 49.37 27.76 50.55 C26.51 53.37 25.26 56.19 24 59 C21.75 59.31 21.75 59.31 19 59 C15.62 55.66 13.87 51.9 12.02 47.56 C11.76 46.96 11.5 46.36 11.24 45.74 C10.7 44.47 10.16 43.2 9.63 41.93 C8.81 40 7.99 38.07 7.16 36.15 C2.79 25.88 2.79 25.88 2 21 C1.34 21 0.68 21 0 21 C0.33 21.66 0.66 22.32 1 23 C1.1 25.61 1.14 28.2 1.13 30.82 C1.13 31.59 1.13 32.36 1.14 33.15 C1.14 34.79 1.13 36.42 1.13 38.05 C1.13 40.56 1.13 43.06 1.14 45.57 C1.14 47.15 1.13 48.73 1.13 50.32 C1.13 51.07 1.14 51.82 1.14 52.6 C1.11 57.89 1.11 57.89 0 59 C-3 59.12 -3 59.12 -6 59 C-7.7 57.3 -7.19 55.11 -7.25 52.78 C-7.28 51.66 -7.31 50.55 -7.34 49.4 C-7.37 48.19 -7.39 46.97 -7.42 45.72 C-7.45 44.49 -7.48 43.25 -7.51 41.97 C-7.56 39.35 -7.62 36.73 -7.67 34.11 C-7.72 31.41 -7.78 28.72 -7.85 26.02 C-7.95 22.15 -8.03 18.28 -8.11 14.41 C-8.14 13.2 -8.18 11.99 -8.21 10.74 C-8.23 9.62 -8.25 8.5 -8.26 7.35 C-8.29 6.36 -8.31 5.38 -8.33 4.36 C-8.22 3.58 -8.11 2.8 -8 2 C-4.74 -0.17 -3.78 -0.46 0 0 Z " fill="#FDFDFD" transform="translate(774,737)"/>
<path d="M0 0 C3.96 0 7.92 0 12 0 C12 28.05 12 56.1 12 85 C26.06 84.96 26.06 84.96 40.12 84.91 C41.88 84.91 43.64 84.9 45.4 84.9 C46.78 84.89 46.78 84.89 48.18 84.89 C49.05 84.89 49.93 84.89 50.83 84.89 C51.59 84.88 52.34 84.88 53.13 84.88 C55 85 55 85 57 86 C57 89.3 57 92.6 57 96 C49.2 96.08 41.41 96.13 33.61 96.16 C30.96 96.18 28.3 96.2 25.65 96.23 C21.84 96.26 18.03 96.28 14.23 96.29 C12.44 96.32 12.44 96.32 10.61 96.34 C9.51 96.34 8.41 96.34 7.28 96.34 C6.3 96.35 5.33 96.35 4.33 96.36 C3.56 96.24 2.79 96.12 2 96 C-0.63 92.06 -0.27 88.7 -0.23 84.12 C-0.23 83.21 -0.23 82.31 -0.23 81.37 C-0.23 78.37 -0.21 75.37 -0.2 72.36 C-0.19 70.28 -0.19 68.2 -0.19 66.12 C-0.18 60.64 -0.16 55.16 -0.14 49.68 C-0.12 44.09 -0.11 38.5 -0.1 32.91 C-0.08 21.94 -0.04 10.97 0 0 Z " fill="#FDFDFD" transform="translate(581,461)"/>
<path d="M0 0 C6.64 2.53 10.37 9.61 14.32 15.17 C16.99 18.92 19.68 22.64 22.38 26.38 C22.93 27.15 23.48 27.92 24.06 28.72 C24.59 29.46 25.12 30.2 25.67 30.96 C26.14 31.62 26.62 32.28 27.1 32.95 C28.89 35.35 30.75 37.68 32.62 40 C32.66 38.33 32.66 38.33 32.7 36.64 C32.79 32.52 32.9 28.41 33 24.3 C33.04 22.52 33.08 20.74 33.12 18.96 C33.18 16.4 33.24 13.85 33.31 11.29 C33.33 10.49 33.34 9.69 33.36 8.87 C33.51 3.23 33.51 3.23 34.62 1 C37.26 1.33 39.9 1.66 42.62 2 C42.62 20.81 42.62 39.62 42.62 59 C34.62 59 34.62 59 32.77 57.81 C32.37 57.24 31.97 56.68 31.55 56.1 C31.07 55.46 30.6 54.82 30.1 54.16 C29.62 53.45 29.13 52.73 28.62 52 C28.09 51.26 27.55 50.52 26.99 49.76 C25.23 47.32 23.52 44.85 21.81 42.38 C21.2 41.5 20.59 40.62 19.97 39.72 C17.22 35.77 14.49 31.81 11.79 27.84 C11.37 27.24 10.96 26.63 10.53 26.01 C9.45 24.42 8.37 22.83 7.3 21.24 C5.82 18.91 5.82 18.91 3.62 18 C3.63 19.21 3.64 20.41 3.64 21.66 C3.66 26.12 3.67 30.58 3.68 35.03 C3.68 36.97 3.69 38.9 3.7 40.83 C3.71 43.61 3.72 46.38 3.72 49.15 C3.73 50.02 3.73 50.89 3.74 51.79 C3.74 53.86 3.69 55.93 3.62 58 C2.62 59 2.62 59 -0.31 59.25 C-1.32 59.17 -2.33 59.09 -3.38 59 C-5.58 55.7 -5.63 54.68 -5.65 50.84 C-5.66 49.79 -5.67 48.74 -5.68 47.66 C-5.68 45.95 -5.68 45.95 -5.68 44.22 C-5.68 43.05 -5.68 41.89 -5.69 40.69 C-5.69 38.22 -5.7 35.76 -5.69 33.29 C-5.69 29.52 -5.71 25.74 -5.74 21.96 C-5.74 19.57 -5.74 17.17 -5.74 14.78 C-5.75 13.65 -5.76 12.51 -5.77 11.34 C-5.76 10.29 -5.75 9.24 -5.75 8.16 C-5.75 7.23 -5.75 6.31 -5.75 5.35 C-5.38 3 -5.38 3 -4 1.18 C-2.38 0 -2.38 0 0 0 Z M33.62 40 C34.62 44 34.62 44 34.62 44 Z " fill="#FDFDFD" transform="translate(898.375,737)"/>
<path d="M0 0 C4.8 0.48 5.6 1.8 8.75 5.38 C10.53 7.73 12.18 10.17 13.81 12.62 C14.77 14.04 15.73 15.45 16.69 16.86 C17.18 17.59 17.68 18.33 18.19 19.08 C20.87 23.03 23.58 26.96 26.31 30.88 C26.82 31.62 27.34 32.37 27.87 33.14 C29.11 34.92 30.42 36.65 31.75 38.38 C32.41 38.38 33.07 38.38 33.75 38.38 C33.73 36.81 33.73 36.81 33.72 35.21 C33.68 31.34 33.66 27.46 33.64 23.59 C33.63 21.91 33.62 20.23 33.6 18.55 C33.57 16.14 33.56 13.73 33.55 11.32 C33.54 10.57 33.53 9.82 33.52 9.05 C33.52 5.27 33.6 3.6 35.75 0.38 C42.62 1.25 42.62 1.25 43.75 2.38 C43.85 4.09 43.88 5.81 43.88 7.52 C43.88 8.62 43.89 9.72 43.89 10.85 C43.89 12.04 43.88 13.24 43.88 14.47 C43.88 15.69 43.88 16.9 43.89 18.16 C43.89 20.74 43.88 23.31 43.88 25.89 C43.88 29.86 43.88 33.82 43.89 37.79 C43.89 40.28 43.88 42.78 43.88 45.28 C43.88 46.48 43.89 47.67 43.89 48.9 C43.88 50.55 43.88 50.55 43.88 52.23 C43.88 53.2 43.88 54.17 43.88 55.17 C43.75 57.38 43.75 57.38 42.75 58.38 C39.54 58.93 37.81 59.21 34.75 58.38 C33.07 56.75 33.07 56.75 31.48 54.55 C30.88 53.74 30.28 52.92 29.66 52.08 C29.03 51.18 28.4 50.29 27.75 49.38 C26.78 48.01 26.78 48.01 25.79 46.62 C23.73 43.72 21.71 40.8 19.69 37.88 C19.01 36.89 18.32 35.91 17.62 34.9 C13.97 29.63 10.37 24.33 6.88 18.94 C6.51 18.42 6.13 17.91 5.75 17.38 C5.42 17.38 5.09 17.38 4.75 17.38 C4.42 30.9 4.09 44.43 3.75 58.38 C1.77 58.38 -0.21 58.38 -2.25 58.38 C-3.95 56.67 -3.43 54.47 -3.47 52.14 C-3.49 51.02 -3.52 49.9 -3.54 48.75 C-3.56 47.53 -3.58 46.32 -3.6 45.06 C-3.62 43.82 -3.65 42.58 -3.67 41.31 C-3.72 38.68 -3.77 36.06 -3.81 33.43 C-3.86 30.06 -3.93 26.68 -3.99 23.31 C-4.05 20.1 -4.11 16.89 -4.16 13.69 C-4.19 12.47 -4.21 11.25 -4.24 10 C-4.25 8.88 -4.27 7.77 -4.29 6.61 C-4.3 5.62 -4.32 4.63 -4.34 3.61 C-4.2 0.05 -3.65 0.42 0 0 Z " fill="#FDFDFD" transform="translate(352.25,737.625)"/>
<path d="M0 0 C3.6 1.32 4.28 2.16 6.52 5.14 C7.13 5.96 7.74 6.77 8.37 7.61 C11.37 11.72 14.29 15.88 17.19 20.06 C22.13 27.17 27.11 34.23 32.25 41.19 C33.67 40 33.67 40 33.32 36.62 C33.3 35.03 33.27 33.44 33.24 31.85 C33.22 30.13 33.21 28.41 33.19 26.69 C33.16 23.97 33.12 21.24 33.08 18.52 C33.04 15.9 33.01 13.28 32.99 10.66 C32.97 9.84 32.95 9.02 32.94 8.18 C32.93 5.89 32.93 5.89 33.25 2.19 C36.25 0.19 36.25 0.19 39.25 0.19 C39.25 0.85 39.25 1.51 39.25 2.19 C40.24 2.19 41.23 2.19 42.25 2.19 C42.27 9.47 42.29 16.76 42.3 24.04 C42.31 27.42 42.31 30.8 42.33 34.19 C42.34 38.07 42.34 41.96 42.35 45.84 C42.35 47.06 42.36 48.28 42.36 49.54 C42.36 50.66 42.36 51.78 42.36 52.93 C42.37 53.93 42.37 54.92 42.37 55.94 C42.25 58.19 42.25 58.19 41.25 59.19 C38.19 59.59 36.2 59.84 33.25 59.19 C30.85 57.26 29.37 54.91 27.75 52.31 C27.31 51.66 26.87 51.01 26.41 50.34 C23.25 45.57 23.25 45.57 23.25 43.19 C22.59 43.19 21.93 43.19 21.25 43.19 C19.88 41.27 19.88 41.27 18.25 38.56 C15.35 33.83 12.25 29.29 9 24.79 C8.54 24.15 8.08 23.51 7.61 22.85 C6.49 21.3 5.37 19.74 4.25 18.19 C4.22 19.39 4.2 20.6 4.17 21.84 C4.08 26.3 3.98 30.76 3.88 35.22 C3.83 37.16 3.79 39.09 3.75 41.02 C3.7 43.79 3.63 46.57 3.57 49.34 C3.54 50.64 3.54 50.64 3.52 51.98 C3.36 58.07 3.36 58.07 2.25 59.19 C-0.75 59.31 -0.75 59.31 -3.75 59.19 C-5.45 57.49 -4.94 55.29 -5 52.97 C-5.03 51.85 -5.06 50.74 -5.09 49.59 C-5.12 48.37 -5.14 47.16 -5.17 45.91 C-5.2 44.67 -5.23 43.44 -5.26 42.16 C-5.31 39.54 -5.37 36.92 -5.42 34.3 C-5.47 31.6 -5.53 28.9 -5.6 26.21 C-5.7 22.34 -5.78 18.47 -5.86 14.6 C-5.89 13.39 -5.93 12.17 -5.96 10.93 C-5.98 9.81 -6 8.69 -6.01 7.54 C-6.04 6.55 -6.06 5.56 -6.08 4.55 C-5.97 3.77 -5.86 2.99 -5.75 2.19 C-2.75 0.19 -2.75 0.19 0 0 Z M33.25 42.19 C34.25 44.19 34.25 44.19 34.25 44.19 Z " fill="#FDFDFD" transform="translate(705.75,736.8125)"/>
<path d="M0 0 C1.19 -0.03 2.37 -0.06 3.59 -0.09 C14.47 -0.17 14.47 -0.17 19.31 4.31 C23.65 9.11 24.63 12.72 24.52 19.03 C24.21 22.41 23.25 24.54 21.31 27.31 C16.26 31.31 16.26 31.31 12.31 31.31 C15.88 38.07 19.65 44.51 23.99 50.8 C25.45 53.57 25.59 55.24 25.31 58.31 C22.37 58.63 20.18 58.85 17.31 58.31 C15.26 56.12 14.13 54.57 12.75 52 C12.38 51.37 12 50.74 11.62 50.09 C10.49 48.18 9.4 46.25 8.31 44.31 C7.1 42.18 5.88 40.05 4.62 37.94 C3.88 36.6 3.88 36.6 3.11 35.23 C1.38 32.96 1.38 32.96 -1.89 33.02 C-2.82 33.12 -3.74 33.21 -4.69 33.31 C-4.68 34.03 -4.68 34.76 -4.67 35.5 C-4.65 38.75 -4.64 42 -4.62 45.25 C-4.62 46.39 -4.61 47.52 -4.6 48.69 C-4.6 49.77 -4.59 50.85 -4.59 51.96 C-4.58 52.97 -4.58 53.97 -4.57 55 C-4.69 57.31 -4.69 57.31 -5.69 58.31 C-8.69 58.44 -8.69 58.44 -11.69 58.31 C-13.39 56.61 -12.86 54.41 -12.91 52.07 C-12.93 50.96 -12.96 49.84 -12.98 48.69 C-13 47.47 -13.02 46.25 -13.04 45 C-13.06 43.76 -13.09 42.52 -13.11 41.24 C-13.16 38.62 -13.2 35.99 -13.25 33.37 C-13.3 29.99 -13.36 26.62 -13.43 23.25 C-13.49 20.04 -13.55 16.83 -13.6 13.62 C-13.63 12.41 -13.65 11.19 -13.67 9.94 C-13.69 8.82 -13.71 7.7 -13.73 6.55 C-13.74 5.56 -13.76 4.57 -13.78 3.55 C-13.55 -2.2 -4.31 0.03 0 0 Z M-4.69 9.31 C-4.69 14.59 -4.69 19.87 -4.69 25.31 C-1.39 25.31 1.91 25.31 5.31 25.31 C5.31 24.98 5.31 24.65 5.31 24.31 C6.43 24.02 7.54 23.74 8.69 23.44 C12.32 22.62 12.32 22.62 14.31 20.31 C14.74 18.21 14.74 18.21 14.75 15.88 C14.79 15.09 14.83 14.31 14.87 13.5 C14.49 11.1 14.49 11.1 12.17 9.54 C8.92 8.14 6.65 7.97 3.12 8.06 C2.08 8.08 1.03 8.09 -0.04 8.11 C-2.66 8.14 -2.66 8.14 -4.69 9.31 Z M15.31 14.31 C15.31 15.96 15.31 17.61 15.31 19.31 C15.64 19.31 15.97 19.31 16.31 19.31 C16.31 17.66 16.31 16.01 16.31 14.31 C15.98 14.31 15.65 14.31 15.31 14.31 Z " fill="#FDFDFD" transform="translate(529.6875,737.6875)"/>
<path d="M0 0 C0.98 -0 0.98 -0 1.97 -0.01 C3.34 -0.01 4.72 -0.01 6.09 0.01 C8.18 0.02 10.27 0.01 12.37 -0.01 C13.7 -0.01 15.04 -0.01 16.38 0 C18.19 0.01 18.19 0.01 20.04 0.01 C23.41 0.43 24.84 0.98 27.19 3.4 C27.5 6.02 27.5 6.02 27.19 8.4 C25.42 10.17 22.84 9.61 20.44 9.68 C19.27 9.72 18.11 9.75 16.91 9.79 C14.43 9.86 11.95 9.93 9.47 10 C8.3 10.04 7.14 10.08 5.94 10.12 C4.32 10.16 4.32 10.16 2.67 10.21 C0.25 10.12 0.25 10.12 -0.81 11.4 C-1.05 13.58 -1.23 15.77 -1.38 17.96 C-1.46 19.16 -1.54 20.36 -1.63 21.59 C-1.69 22.52 -1.75 23.44 -1.81 24.4 C-1.1 24.38 -0.39 24.37 0.34 24.35 C3.56 24.29 6.78 24.25 10 24.21 C11.12 24.19 12.24 24.16 13.39 24.13 C14.47 24.13 15.54 24.12 16.64 24.11 C17.63 24.09 18.62 24.07 19.64 24.06 C22.19 24.4 22.19 24.4 24.02 25.75 C25.64 28.03 25.47 29.67 25.19 32.4 C24.19 33.4 24.19 33.4 21.78 33.51 C20.74 33.51 19.69 33.5 18.62 33.5 C17.5 33.49 16.37 33.49 15.21 33.49 C14.03 33.48 12.84 33.47 11.62 33.46 C10.44 33.46 9.25 33.45 8.03 33.45 C5.08 33.44 2.13 33.42 -0.81 33.4 C-1.14 39.01 -1.47 44.62 -1.81 50.4 C0.1 50.36 2.02 50.33 3.99 50.29 C6.49 50.26 9 50.24 11.5 50.21 C12.76 50.19 14.03 50.16 15.33 50.13 C16.53 50.13 17.74 50.12 18.99 50.11 C20.1 50.09 21.22 50.07 22.37 50.06 C25.19 50.4 25.19 50.4 27.06 51.75 C28.63 54.04 28.47 55.69 28.19 58.4 C26.17 60.42 22.06 59.59 19.29 59.6 C18.49 59.61 17.7 59.61 16.88 59.62 C15.2 59.63 13.52 59.63 11.84 59.64 C9.26 59.65 6.69 59.68 4.11 59.71 C2.48 59.72 0.85 59.72 -0.78 59.73 C-1.94 59.75 -1.94 59.75 -3.12 59.76 C-5.3 59.75 -5.3 59.75 -8.81 59.4 C-11.01 56.1 -11.07 55.07 -11.1 51.24 C-11.12 50.19 -11.13 49.14 -11.14 48.05 C-11.14 46.92 -11.15 45.79 -11.15 44.62 C-11.16 43.45 -11.16 42.29 -11.17 41.09 C-11.18 38.62 -11.18 36.16 -11.18 33.69 C-11.19 29.91 -11.22 26.13 -11.26 22.36 C-11.27 19.96 -11.27 17.57 -11.27 15.18 C-11.29 14.05 -11.3 12.91 -11.32 11.74 C-11.31 10.69 -11.3 9.64 -11.3 8.56 C-11.3 7.63 -11.3 6.7 -11.31 5.75 C-10.81 3.4 -10.81 3.4 -8.98 1.6 C-5.92 -0.09 -3.48 0.01 0 0 Z M-4.81 1.4 C-4.81 1.73 -4.81 2.06 -4.81 2.4 C4.43 2.4 13.67 2.4 23.19 2.4 C23.19 2.07 23.19 1.74 23.19 1.4 C13.95 1.4 4.71 1.4 -4.81 1.4 Z " fill="#FDFDFD" transform="translate(473.8125,736.6015625)"/>
<path d="M0 0 C2.21 0.31 2.21 0.31 4.25 1.19 C5.59 3.09 5.59 3.09 6.71 5.55 C7.13 6.45 7.55 7.36 7.99 8.29 C10.06 13.05 12.1 17.82 14.06 22.62 C14.93 24.73 15.8 26.84 16.66 28.95 C17.31 30.51 17.31 30.51 17.97 32.11 C19.18 35.03 20.44 37.93 21.71 40.83 C22.09 41.7 22.46 42.56 22.85 43.45 C23.56 45.07 24.28 46.69 25 48.3 C26.63 52.07 27.54 54.26 26.25 58.19 C23.06 58.69 23.06 58.69 19.25 58.19 C15.06 53.92 13.87 48.87 12.25 43.19 C4.33 43.52 -3.59 43.85 -11.75 44.19 C-14.06 48.81 -16.37 53.43 -18.75 58.19 C-21.06 58.19 -23.37 58.19 -25.75 58.19 C-26.91 56.1 -26.91 56.1 -27.75 53.19 C-26.83 50.11 -26.83 50.11 -25.2 46.66 C-24.91 46.03 -24.62 45.41 -24.32 44.76 C-23.38 42.73 -22.41 40.71 -21.44 38.69 C-20.46 36.59 -19.48 34.5 -18.51 32.4 C-17.86 31 -17.2 29.6 -16.55 28.21 C-13.3 21.27 -10.29 14.23 -7.33 7.17 C-4.4 0.22 -4.4 0.22 0 0 Z M-0.75 14.19 C-2.09 17.48 -3.42 20.77 -4.75 24.06 C-5.32 25.47 -5.32 25.47 -5.91 26.9 C-6.27 27.8 -6.63 28.69 -7 29.62 C-7.34 30.44 -7.67 31.27 -8.02 32.12 C-8.86 34.14 -8.86 34.14 -8.75 36.19 C-2.81 36.19 3.13 36.19 9.25 36.19 C8.59 33.55 7.93 30.91 7.25 28.19 C6.59 28.19 5.93 28.19 5.25 28.19 C5.15 27.55 5.04 26.91 4.94 26.25 C4.01 22.12 2.63 18.18 1.25 14.19 C0.59 14.19 -0.07 14.19 -0.75 14.19 Z " fill="#FDFDFD" transform="translate(634.75,737.8125)"/>
<path d="M0 0 C11.88 0.33 23.76 0.66 36 1 C36 3.31 36 5.62 36 8 C26.76 8.33 17.52 8.66 8 9 C8.33 13.62 8.66 18.24 9 23 C10.63 22.97 12.25 22.93 13.93 22.89 C16.05 22.87 18.18 22.84 20.31 22.81 C21.38 22.79 22.46 22.76 23.56 22.74 C24.59 22.73 25.62 22.72 26.68 22.71 C28.1 22.68 28.1 22.68 29.55 22.66 C32 23 32 23 33.82 24.35 C35.46 26.63 35.29 28.26 35 31 C33.25 32.75 30.81 32.23 28.43 32.32 C27.31 32.36 26.18 32.4 25.03 32.44 C23.84 32.48 22.66 32.52 21.44 32.56 C20.25 32.61 19.06 32.65 17.84 32.69 C14.89 32.8 11.95 32.9 9 33 C9 38.28 9 43.56 9 49 C10.84 48.97 12.68 48.93 14.58 48.89 C16.99 48.87 19.4 48.84 21.81 48.81 C23.03 48.79 24.24 48.76 25.49 48.74 C27.24 48.72 27.24 48.72 29.02 48.71 C30.09 48.69 31.17 48.68 32.27 48.66 C35 49 35 49 36.86 50.35 C38.44 52.64 38.29 54.29 38 57 C35.98 59.02 31.87 58.19 29.1 58.2 C28.3 58.21 27.51 58.21 26.69 58.22 C25.01 58.23 23.33 58.24 21.65 58.24 C19.08 58.25 16.5 58.28 13.92 58.31 C12.29 58.32 10.66 58.32 9.04 58.33 C7.87 58.35 7.87 58.35 6.69 58.37 C4.52 58.36 4.52 58.36 1 58 C-1.21 54.69 -1.25 53.68 -1.24 49.83 C-1.25 48.77 -1.25 47.72 -1.25 46.63 C-1.25 45.49 -1.24 44.36 -1.23 43.18 C-1.23 42.02 -1.23 40.85 -1.23 39.65 C-1.23 37.18 -1.22 34.71 -1.21 32.24 C-1.19 28.45 -1.19 24.66 -1.19 20.87 C-1.18 18.47 -1.17 16.08 -1.17 13.68 C-1.17 12.54 -1.17 11.4 -1.16 10.23 C-1.16 9.18 -1.15 8.13 -1.15 7.04 C-1.14 6.12 -1.14 5.19 -1.13 4.23 C-1 2 -1 2 0 0 Z " fill="#FDFDFD" transform="translate(296,738)"/>
<path d="M0 0 C1.52 0.04 3.04 0.09 4.55 0.14 C5.75 0.18 5.75 0.18 6.97 0.21 C9.53 0.29 12.09 0.38 14.64 0.46 C16.37 0.51 18.1 0.57 19.83 0.62 C24.08 0.75 28.33 0.88 32.58 1.02 C32.58 3.33 32.58 5.64 32.58 8.02 C31.77 8.05 30.96 8.07 30.12 8.1 C26.46 8.21 22.8 8.34 19.14 8.46 C17.86 8.5 16.59 8.54 15.27 8.58 C13.44 8.64 13.44 8.64 11.59 8.71 C10.46 8.74 9.33 8.78 8.17 8.82 C5.65 8.73 5.65 8.73 4.58 10.02 C4.35 12.2 4.17 14.39 4.02 16.58 C3.94 17.78 3.85 18.98 3.77 20.21 C3.7 21.14 3.64 22.07 3.58 23.02 C4.33 23.01 5.08 23 5.84 22.99 C9.22 22.95 12.59 22.92 15.96 22.9 C17.13 22.88 18.31 22.86 19.52 22.85 C21.2 22.84 21.2 22.84 22.92 22.83 C23.95 22.82 24.99 22.81 26.06 22.79 C28.58 23.02 28.58 23.02 30.58 25.02 C30.58 27.33 30.58 29.64 30.58 32.02 C22 32.02 13.42 32.02 4.58 32.02 C4.25 37.63 3.92 43.24 3.58 49.02 C5.5 49 7.41 48.98 9.38 48.95 C11.89 48.93 14.39 48.91 16.89 48.9 C18.16 48.88 19.42 48.86 20.72 48.85 C22.53 48.84 22.53 48.84 24.38 48.83 C25.5 48.82 26.61 48.81 27.76 48.79 C30.58 49.02 30.58 49.02 33.58 51.02 C33.83 54.08 33.83 54.08 33.58 57.02 C31.82 58.78 29.5 58.15 27.16 58.16 C26.4 58.16 25.64 58.16 24.86 58.15 C23.7 58.16 23.7 58.16 22.52 58.16 C20.88 58.16 19.25 58.16 17.61 58.15 C15.09 58.15 12.58 58.15 10.06 58.16 C8.48 58.16 6.89 58.16 5.3 58.15 C4.54 58.16 3.79 58.16 3.01 58.16 C-2.3 58.14 -2.3 58.14 -3.42 57.02 C-3.55 55.28 -3.61 53.53 -3.64 51.78 C-3.66 50.67 -3.69 49.55 -3.71 48.4 C-3.73 47.18 -3.75 45.96 -3.77 44.71 C-3.79 43.47 -3.82 42.23 -3.84 40.95 C-3.89 38.33 -3.93 35.7 -3.98 33.08 C-4.03 29.7 -4.09 26.33 -4.16 22.96 C-4.22 19.75 -4.28 16.54 -4.33 13.33 C-4.36 12.12 -4.38 10.9 -4.4 9.65 C-4.42 8.53 -4.44 7.41 -4.46 6.26 C-4.47 5.27 -4.49 4.28 -4.51 3.26 C-4.36 -0.42 -3.8 0.02 0 0 Z " fill="#FDFDFD" transform="translate(845.418212890625,737.978271484375)"/>
<path d="M0 0 C0.33 0 0.66 0 1 0 C3.62 21.69 -1.38 42.5 -14.69 60 C-32.9 81.79 -57.91 88.54 -85.38 91.05 C-88 91 -88 91 -90 89 C-88.95 88.84 -88.95 88.84 -87.88 88.67 C-82.74 87.81 -78.01 86.81 -73.2 84.84 C-70.47 83.8 -67.69 83.05 -64.88 82.25 C-42.54 75.43 -21.9 59.5 -10.8 38.75 C-5.62 28.33 -3.19 17.55 -2 6 C-1.67 6 -1.34 6 -1 6 C-0.67 4.02 -0.34 2.04 0 0 Z " fill="#FDFDFD" transform="translate(308,230)"/>
<path d="M0 0 C0.76 0.02 1.52 0.03 2.3 0.05 C3.16 0.07 4.01 0.09 4.9 0.1 C5.83 0.13 6.76 0.15 7.72 0.17 C9.15 0.21 9.15 0.21 10.6 0.24 C12.62 0.29 14.63 0.33 16.65 0.39 C19.74 0.46 22.84 0.53 25.93 0.6 C27.88 0.64 29.83 0.69 31.79 0.74 C32.72 0.76 33.65 0.78 34.61 0.8 C35.9 0.83 35.9 0.83 37.21 0.87 C37.97 0.89 38.73 0.9 39.51 0.92 C41.25 1.09 41.25 1.09 42.25 2.09 C42.38 4.59 42.38 4.59 42.25 7.09 C41.25 8.09 41.25 8.09 37.44 8.19 C35.86 8.18 34.27 8.17 32.69 8.15 C31.89 8.15 31.08 8.14 30.25 8.14 C28.25 8.13 26.25 8.11 24.25 8.09 C24.26 8.7 24.26 9.31 24.26 9.94 C24.28 16.28 24.3 22.63 24.31 28.97 C24.31 31.34 24.32 33.71 24.33 36.08 C24.34 39.48 24.35 42.87 24.35 46.27 C24.36 47.34 24.36 48.41 24.37 49.5 C24.37 50.98 24.37 50.98 24.37 52.48 C24.37 53.35 24.37 54.21 24.37 55.11 C24.25 57.09 24.25 57.09 23.25 58.09 C19.82 58.34 19.82 58.34 16.25 58.09 C14.12 54.89 14.01 54.1 14.03 50.43 C14.03 49.49 14.03 48.55 14.03 47.58 C14.04 46.57 14.05 45.56 14.06 44.51 C14.06 43.48 14.06 42.44 14.07 41.37 C14.08 38.04 14.1 34.72 14.13 31.4 C14.14 29.15 14.15 26.9 14.16 24.65 C14.18 19.13 14.21 13.61 14.25 8.09 C13.12 8.12 11.99 8.16 10.82 8.19 C9.34 8.22 7.86 8.25 6.38 8.28 C5.26 8.31 5.26 8.31 4.12 8.35 C1.95 8.38 1.95 8.38 -1.75 8.09 C-3.75 5.09 -3.75 5.09 -3.43 2.96 C-2.39 0.12 -2.39 0.12 0 0 Z M15.25 9.09 C15.25 24.27 15.25 39.45 15.25 55.09 C15.58 55.09 15.91 55.09 16.25 55.09 C16.25 39.91 16.25 24.73 16.25 9.09 C15.92 9.09 15.59 9.09 15.25 9.09 Z " fill="#FDFDFD" transform="translate(955.7459716796875,737.9109802246094)"/>
<path d="M0 0 C0.89 0 1.77 0 2.68 0.01 C3.59 0.01 4.49 0 5.42 0 C7.34 0 9.25 0 11.17 0.01 C14.11 0.01 17.05 0.01 19.99 0 C21.84 0 23.7 0 25.56 0.01 C26.44 0 27.32 0 28.23 0 C34.46 0.02 34.46 0.02 36.69 1.14 C36.69 3.45 36.69 5.76 36.69 8.14 C35.54 8.2 34.4 8.26 33.22 8.32 C31.73 8.41 30.24 8.49 28.75 8.58 C27.62 8.64 27.62 8.64 26.46 8.7 C22.77 8.58 22.77 8.58 19.69 10.14 C19.56 11.64 19.51 13.15 19.48 14.66 C19.46 15.62 19.44 16.58 19.42 17.57 C19.4 19.14 19.4 19.14 19.37 20.74 C19.35 21.8 19.33 22.86 19.31 23.96 C19.24 27.37 19.18 30.79 19.12 34.2 C19.08 36.51 19.04 38.82 18.99 41.13 C18.89 46.8 18.78 52.47 18.69 58.14 C15.31 58.33 15.31 58.33 11.69 58.14 C9.55 54.94 9.44 54.15 9.46 50.48 C9.46 49.54 9.46 48.6 9.46 47.63 C9.47 46.62 9.48 45.61 9.49 44.56 C9.49 43.53 9.5 42.49 9.5 41.42 C9.51 38.09 9.54 34.77 9.56 31.45 C9.57 29.2 9.58 26.95 9.59 24.7 C9.61 19.18 9.64 13.66 9.69 8.14 C8.56 8.16 7.42 8.19 6.26 8.21 C4.78 8.23 3.29 8.25 1.81 8.26 C1.07 8.28 0.32 8.3 -0.45 8.31 C-2.41 8.33 -4.36 8.24 -6.31 8.14 C-6.97 7.48 -7.63 6.82 -8.31 6.14 C-7.54 -0.22 -6.21 0.02 0 0 Z " fill="#FDFDFD" transform="translate(569.3130950927734,737.8610534667969)"/>
<path d="M0 0 C21.78 0.5 21.78 0.5 44 1 C44 2.98 44 4.96 44 7 C41.82 9.18 36.44 8.45 33.37 8.61 C29.89 8.5 29.89 8.5 27 10 C26.88 11.47 26.83 12.94 26.81 14.41 C26.79 15.35 26.78 16.29 26.76 17.25 C26.75 18.27 26.73 19.29 26.72 20.34 C26.7 21.38 26.68 22.42 26.66 23.49 C26.6 26.83 26.55 30.16 26.5 33.5 C26.43 37.89 26.36 42.27 26.28 46.66 C26.27 47.68 26.25 48.7 26.24 49.75 C26.22 50.68 26.21 51.62 26.19 52.59 C26.17 53.83 26.17 53.83 26.15 55.1 C26 57 26 57 25 58 C22.06 58.25 22.06 58.25 19 58 C16.87 54.8 16.75 54.01 16.77 50.34 C16.77 49.4 16.77 48.46 16.77 47.49 C16.78 46.48 16.79 45.47 16.8 44.43 C16.81 43.39 16.81 42.35 16.81 41.28 C16.82 37.96 16.85 34.63 16.88 31.31 C16.89 29.06 16.89 26.81 16.9 24.56 C16.92 19.04 16.96 13.52 17 8 C15.87 8.02 14.74 8.05 13.57 8.07 C12.09 8.09 10.61 8.11 9.12 8.12 C8.38 8.14 7.63 8.16 6.86 8.18 C4.91 8.19 2.95 8.1 1 8 C0.34 7.34 -0.32 6.68 -1 6 C-0.67 4.02 -0.34 2.04 0 0 Z " fill="#FDFDFD" transform="translate(408,738)"/>
<path d="M0 0 C0 0.66 0 1.32 0 2 C1.32 2.33 2.64 2.66 4 3 C4.03 10.81 4.04 18.63 4.05 26.44 C4.06 29.1 4.07 31.77 4.08 34.43 C4.09 38.24 4.09 42.06 4.1 45.87 C4.1 47.07 4.11 48.27 4.11 49.5 C4.11 50.6 4.11 51.7 4.11 52.84 C4.12 53.81 4.12 54.79 4.12 55.79 C4 58 4 58 3 59 C0.06 59.25 0.06 59.25 -3 59 C-5.2 55.7 -5.26 54.68 -5.27 50.84 C-5.28 49.79 -5.29 48.74 -5.3 47.66 C-5.3 45.95 -5.3 45.95 -5.3 44.22 C-5.31 43.05 -5.31 41.89 -5.31 40.69 C-5.32 38.22 -5.32 35.76 -5.32 33.29 C-5.31 29.52 -5.34 25.74 -5.36 21.96 C-5.36 19.57 -5.36 17.17 -5.36 14.78 C-5.37 13.65 -5.38 12.51 -5.39 11.34 C-5.38 10.29 -5.38 9.24 -5.37 8.16 C-5.37 7.23 -5.37 6.31 -5.37 5.35 C-4.84 2.02 -3.53 0 0 0 Z " fill="#FDFDFD" transform="translate(678,737)"/>
<path d="M0 0 C0.33 0 0.66 0 1 0 C1 48.84 1 97.68 1 148 C0.67 148 0.34 148 0 148 C0 99.16 0 50.32 0 0 Z " fill="#FDFDFD" transform="translate(345,62)"/>
<path d="M0 0 C0.33 0 0.66 0 1 0 C1 36.96 1 73.92 1 112 C0.67 112 0.34 112 0 112 C0 75.04 0 38.08 0 0 Z " fill="#FDFDFD" transform="translate(313,601)"/>
<path d="M0 0 C0.33 0 0.66 0 1 0 C1 36.63 1 73.26 1 111 C0.67 111 0.34 111 0 111 C0 74.37 0 37.74 0 0 Z " fill="#FDFDFD" transform="translate(517,601)"/>
<path d="M0 0 C0.33 0 0.66 0 1 0 C1 17.16 1 34.32 1 52 C0.67 52 0.34 52 0 52 C0 34.84 0 17.68 0 0 Z " fill="#FDFDFD" transform="translate(840,740)"/>
<path d="M0 0 C0.33 0 0.66 0 1 0 C1 16.83 1 33.66 1 51 C0.67 51 0.34 51 0 51 C0 34.17 0 17.34 0 0 Z " fill="#FDFDFD" transform="translate(765,741)"/>
<path d="M0 0 C0.33 0 0.66 0 1 0 C1 16.83 1 33.66 1 51 C0.67 51 0.34 51 0 51 C0 34.17 0 17.34 0 0 Z " fill="#FDFDFD" transform="translate(699,741)"/>
<path d="M0 0 C0.33 0 0.66 0 1 0 C1 16.83 1 33.66 1 51 C0.67 51 0.34 51 0 51 C0 34.17 0 17.34 0 0 Z " fill="#FDFDFD" transform="translate(515,741)"/>
<path d="M0 0 C0.33 0 0.66 0 1 0 C1 16.83 1 33.66 1 51 C0.67 51 0.34 51 0 51 C0 34.17 0 17.34 0 0 Z " fill="#FDFDFD" transform="translate(347,741)"/>
<path d="M0 0 C15.84 0 31.68 0 48 0 C48 0.33 48 0.66 48 1 C32.16 1 16.32 1 0 1 C0 0.67 0 0.34 0 0 Z " fill="#FDFDFD" transform="translate(172,598)"/>
<path d="M0 0 C15.51 0 31.02 0 47 0 C47 0.33 47 0.66 47 1 C31.49 1 15.98 1 0 1 C0 0.67 0 0.34 0 0 Z " fill="#FDFDFD" transform="translate(995,598)"/>
<path d="M0 0 C12.87 0 25.74 0 39 0 C39 0.33 39 0.66 39 1 C26.13 1 13.26 1 0 1 C0 0.67 0 0.34 0 0 Z " fill="#FDFDFD" transform="translate(410,737)"/>
<path d="M0 0 C12.54 0 25.08 0 38 0 C38 0.33 38 0.66 38 1 C25.46 1 12.92 1 0 1 C0 0.67 0 0.34 0 0 Z " fill="#FDFDFD" transform="translate(956,737)"/>
<path d="M0 0 C12.54 0 25.08 0 38 0 C38 0.33 38 0.66 38 1 C25.46 1 12.92 1 0 1 C0 0.67 0 0.34 0 0 Z " fill="#FDFDFD" transform="translate(565,737)"/>
<path d="M0 0 C12.21 0 24.42 0 37 0 C37 0.33 37 0.66 37 1 C24.79 1 12.58 1 0 1 C0 0.67 0 0.34 0 0 Z " fill="#FDFDFD" transform="translate(612,598)"/>
<path d="M0 0 C12.21 0 24.42 0 37 0 C37 0.33 37 0.66 37 1 C24.79 1 12.58 1 0 1 C0 0.67 0 0.34 0 0 Z " fill="#FDFDFD" transform="translate(520,598)"/>
<path d="M0 0 C0.33 0 0.66 0 1 0 C1 11.55 1 23.1 1 35 C0.67 35 0.34 35 0 35 C0 23.45 0 11.9 0 0 Z " fill="#FDFDFD" transform="translate(738,741)"/>
<path d="M0 0 C11.22 0 22.44 0 34 0 C34 0.33 34 0.66 34 1 C22.78 1 11.56 1 0 1 C0 0.67 0 0.34 0 0 Z " fill="#FDFDFD" transform="translate(686,520)"/>
<path d="M0 0 C10.89 0 21.78 0 33 0 C33 0.33 33 0.66 33 1 C22.11 1 11.22 1 0 1 C0 0.67 0 0.34 0 0 Z " fill="#FDFDFD" transform="translate(481,459)"/>
<path d="M0 0 C10.23 0 20.46 0 31 0 C31 0.33 31 0.66 31 1 C20.77 1 10.54 1 0 1 C0 0.67 0 0.34 0 0 Z " fill="#FDFDFD" transform="translate(844,737)"/>
<path d="M0 0 C10.23 0 20.46 0 31 0 C31 0.33 31 0.66 31 1 C20.77 1 10.54 1 0 1 C0 0.67 0 0.34 0 0 Z " fill="#FDFDFD" transform="translate(298,737)"/>
<path d="M0 0 C9.57 0 19.14 0 29 0 C29 0.33 29 0.66 29 1 C19.43 1 9.86 1 0 1 C0 0.67 0 0.34 0 0 Z " fill="#FDFDFD" transform="translate(849,598)"/>
<path d="M0 0 C7.92 0 15.84 0 24 0 C24 0.33 24 0.66 24 1 C16.08 1 8.16 1 0 1 C0 0.67 0 0.34 0 0 Z " fill="#FDFDFD" transform="translate(927,598)"/>
<path d="M0 0 C7.92 0 15.84 0 24 0 C24 0.33 24 0.66 24 1 C16.08 1 8.16 1 0 1 C0 0.67 0 0.34 0 0 Z " fill="#FDFDFD" transform="translate(316,598)"/>
<path d="M0 0 C7.59 0 15.18 0 23 0 C23 0.33 23 0.66 23 1 C15.41 1 7.82 1 0 1 C0 0.67 0 0.34 0 0 Z " fill="#FDFDFD" transform="translate(419,669)"/>
<path d="M0 0 C7.59 0 15.18 0 23 0 C23 0.33 23 0.66 23 1 C15.41 1 7.82 1 0 1 C0 0.67 0 0.34 0 0 Z " fill="#FDFDFD" transform="translate(419,598)"/>
<path d="M0 0 C6.6 0 13.2 0 20 0 C20 0.33 20 0.66 20 1 C13.4 1 6.8 1 0 1 C0 0.67 0 0.34 0 0 Z " fill="#FDFDFD" transform="translate(519,737)"/>
<path d="M0 0 C4.62 0 9.24 0 14 0 C14 0.33 14 0.66 14 1 C9.38 1 4.76 1 0 1 C0 0.67 0 0.34 0 0 Z " fill="#FDFDFD" transform="translate(628,772)"/>
<path d="M0 0 C3.96 0 7.92 0 12 0 C12 0.33 12 0.66 12 1 C8.04 1 4.08 1 0 1 C0 0.67 0 0.34 0 0 Z " fill="#FDFDFD" transform="translate(744,595)"/>
<path d="M0 0 C0.33 0 0.66 0 1 0 C1 3.3 1 6.6 1 10 C0.67 10 0.34 10 0 10 C0 6.7 0 3.4 0 0 Z " fill="#FDFDFD" transform="translate(770,504)"/>
<path d="M0 0 C3.3 0 6.6 0 10 0 C10 0.33 10 0.66 10 1 C6.7 1 3.4 1 0 1 C0 0.67 0 0.34 0 0 Z " fill="#FDFDFD" transform="translate(947,459)"/>
<path d="M0 0 C2.64 0 5.28 0 8 0 C8 0.33 8 0.66 8 1 C5.36 1 2.72 1 0 1 C0 0.67 0 0.34 0 0 Z " fill="#FDFDFD" transform="translate(698,459)"/>
<path d="M0 0 C2.64 0 5.28 0 8 0 C8 0.33 8 0.66 8 1 C5.36 1 2.72 1 0 1 C0 0.67 0 0.34 0 0 Z " fill="#FDFDFD" transform="translate(583,459)"/>
<path d="M0 0 C2.31 0 4.62 0 7 0 C7 0.33 7 0.66 7 1 C4.69 1 2.38 1 0 1 C0 0.67 0 0.34 0 0 Z " fill="#FDFDFD" transform="translate(892,459)"/>
<path d="M0 0 C0.33 0 0.66 0 1 0 C1 1.98 1 3.96 1 6 C0.67 6 0.34 6 0 6 C0 4.02 0 2.04 0 0 Z " fill="#FDFDFD" transform="translate(355,445)"/>
<path d="M0 0 C1.65 0 3.3 0 5 0 C5 0.33 5 0.66 5 1 C3.35 1 1.7 1 0 1 C0 0.67 0 0.34 0 0 Z " fill="#FDFDFD" transform="translate(815,737)"/>
<path d="M0 0 C4 1 4 1 4 1 Z " fill="#FDFDFD" transform="translate(351,737)"/>
<path d="M0 0 C3 1 3 1 3 1 Z " fill="#FDFDFD" transform="translate(935,737)"/>
<path d="M0 0 C3 1 3 1 3 1 Z " fill="#FDFDFD" transform="translate(633,737)"/>
<path d="M0 0 C2 1 2 1 2 1 Z " fill="#FDFDFD" transform="translate(390,737)"/>
<path d="" fill="#FDFDFD" transform="translate(0,0)"/>
<path d="" fill="#FDFDFD" transform="translate(0,0)"/>
</svg>
